<?xml version="1.0" encoding="utf-8" standalone="no"?>
<!DOCTYPE svg PUBLIC "-//W3C//DTD SVG 1.1//EN"
  "http://www.w3.org/Graphics/SVG/1.1/DTD/svg11.dtd">
<svg height="531.47625pt" version="1.1" viewBox="0 0 1044.165625 531.47625" width="1044.165625pt" xmlns="http://www.w3.org/2000/svg" xmlns:xlink="http://www.w3.org/1999/xlink">
 <metadata>
  <rdf:RDF xmlns:cc="http://creativecommons.org/ns#" xmlns:dc="http://purl.org/dc/elements/1.1/" xmlns:rdf="http://www.w3.org/1999/02/22-rdf-syntax-ns#">
   <cc:Work>
    <dc:type rdf:resource="http://purl.org/dc/dcmitype/StillImage"/>
    <dc:date>2022-01-11T20:52:21.959650</dc:date>
    <dc:format>image/svg+xml</dc:format>
    <dc:creator>
     <cc:Agent>
      <dc:title>Matplotlib v3.4.3, https://matplotlib.org/</dc:title>
     </cc:Agent>
    </dc:creator>
   </cc:Work>
  </rdf:RDF>
 </metadata>
 <defs>
  <style type="text/css">*{stroke-linecap:butt;stroke-linejoin:round;}</style>
 </defs>
 <g id="figure_1">
  <g id="patch_1">
   <path d="M 0 531.47625 
L 1044.165625 531.47625 
L 1044.165625 0 
L 0 0 
z
" style="fill:#ffffff;"/>
  </g>
  <g id="axes_1">
   <g id="patch_2">
    <path d="M 39.765625 501.12 
L 335.17739 501.12 
L 335.17739 57.6 
L 39.765625 57.6 
z
" style="fill:#ffffff;"/>
   </g>
   <g id="PolyCollection_1">
    <defs>
     <path d="M 192.083943 -50.51625 
L 182.859072 -50.51625 
L 182.072506 -54.588977 
L 181.189943 -58.661705 
L 180.206929 -62.734432 
L 179.120081 -66.807159 
L 177.927274 -70.879886 
L 176.627817 -74.952614 
L 175.222576 -79.025341 
L 173.714061 -83.098068 
L 172.106448 -87.170795 
L 170.405539 -91.243523 
L 168.618648 -95.31625 
L 166.754405 -99.388977 
L 164.822492 -103.461705 
L 162.833307 -107.534432 
L 160.797571 -111.607159 
L 158.72588 -115.679886 
L 156.628242 -119.752614 
L 154.513603 -123.825341 
L 152.389392 -127.898068 
L 150.26112 -131.970795 
L 148.132041 -136.043523 
L 146.002922 -140.11625 
L 143.87192 -144.188977 
L 141.734606 -148.261705 
L 139.584123 -152.334432 
L 137.411502 -156.407159 
L 135.206114 -160.479886 
L 132.956251 -164.552614 
L 130.64982 -168.625341 
L 128.275106 -172.698068 
L 125.821579 -176.770795 
L 123.280704 -180.843523 
L 120.646703 -184.91625 
L 117.917236 -188.988977 
L 115.093958 -193.061705 
L 112.182911 -197.134432 
L 109.194728 -201.207159 
L 106.144634 -205.279886 
L 103.05223 -209.352614 
L 99.94106 -213.425341 
L 96.837994 -217.498068 
L 93.772432 -221.570795 
L 90.775379 -225.643523 
L 87.878431 -229.71625 
L 85.112727 -233.788977 
L 82.507913 -237.861705 
L 80.091177 -241.934432 
L 77.886402 -246.007159 
L 75.913482 -250.079886 
L 74.187838 -254.152614 
L 72.720145 -258.225341 
L 71.5163 -262.298068 
L 70.577619 -266.370795 
L 69.901242 -270.443523 
L 69.480728 -274.51625 
L 69.306801 -278.588977 
L 69.368195 -282.661705 
L 69.652546 -286.734432 
L 70.147284 -290.807159 
L 70.840466 -294.879886 
L 71.721496 -298.952614 
L 72.781702 -303.025341 
L 74.014728 -307.098068 
L 75.416719 -311.170795 
L 76.986304 -315.243523 
L 78.724361 -319.31625 
L 80.633605 -323.388977 
L 82.71801 -327.461705 
L 84.98211 -331.534432 
L 87.430228 -335.607159 
L 90.065673 -339.679886 
L 92.889962 -343.752614 
L 95.902117 -347.825341 
L 99.098065 -351.898068 
L 102.470194 -355.970795 
L 106.007081 -360.043523 
L 109.6934 -364.11625 
L 113.510038 -368.188977 
L 117.434379 -372.261705 
L 121.440764 -376.334432 
L 125.50109 -380.407159 
L 129.585526 -384.479886 
L 133.663284 -388.552614 
L 137.703443 -392.625341 
L 141.675758 -396.698068 
L 145.551424 -400.770795 
L 149.303778 -404.843523 
L 152.908891 -408.91625 
L 156.346046 -412.988977 
L 159.598086 -417.061705 
L 162.651621 -421.134432 
L 165.497104 -425.207159 
L 168.128778 -429.279886 
L 170.544514 -433.352614 
L 172.745545 -437.425341 
L 174.736134 -441.498068 
L 176.523172 -445.570795 
L 178.115752 -449.643523 
L 179.524724 -453.71625 
L 195.41829 -453.71625 
L 195.41829 -453.71625 
L 196.827263 -449.643523 
L 198.419843 -445.570795 
L 200.206881 -441.498068 
L 202.197469 -437.425341 
L 204.398501 -433.352614 
L 206.814237 -429.279886 
L 209.445911 -425.207159 
L 212.291393 -421.134432 
L 215.344928 -417.061705 
L 218.596969 -412.988977 
L 222.034124 -408.91625 
L 225.639237 -404.843523 
L 229.391591 -400.770795 
L 233.267257 -396.698068 
L 237.239571 -392.625341 
L 241.279731 -388.552614 
L 245.357489 -384.479886 
L 249.441924 -380.407159 
L 253.502251 -376.334432 
L 257.508636 -372.261705 
L 261.432976 -368.188977 
L 265.249614 -364.11625 
L 268.935934 -360.043523 
L 272.47282 -355.970795 
L 275.84495 -351.898068 
L 279.040898 -347.825341 
L 282.053052 -343.752614 
L 284.877342 -339.679886 
L 287.512787 -335.607159 
L 289.960904 -331.534432 
L 292.225005 -327.461705 
L 294.30941 -323.388977 
L 296.218654 -319.31625 
L 297.956711 -315.243523 
L 299.526296 -311.170795 
L 300.928287 -307.098068 
L 302.161313 -303.025341 
L 303.221519 -298.952614 
L 304.102549 -294.879886 
L 304.79573 -290.807159 
L 305.290469 -286.734432 
L 305.574819 -282.661705 
L 305.636213 -278.588977 
L 305.462287 -274.51625 
L 305.041773 -270.443523 
L 304.365396 -266.370795 
L 303.426715 -262.298068 
L 302.22287 -258.225341 
L 300.755177 -254.152614 
L 299.029532 -250.079886 
L 297.056613 -246.007159 
L 294.851838 -241.934432 
L 292.435102 -237.861705 
L 289.830288 -233.788977 
L 287.064584 -229.71625 
L 284.167636 -225.643523 
L 281.170582 -221.570795 
L 278.105021 -217.498068 
L 275.001955 -213.425341 
L 271.890785 -209.352614 
L 268.79838 -205.279886 
L 265.748287 -201.207159 
L 262.760104 -197.134432 
L 259.849057 -193.061705 
L 257.025779 -188.988977 
L 254.296312 -184.91625 
L 251.662311 -180.843523 
L 249.121435 -176.770795 
L 246.667909 -172.698068 
L 244.293194 -168.625341 
L 241.986764 -164.552614 
L 239.736901 -160.479886 
L 237.531513 -156.407159 
L 235.358892 -152.334432 
L 233.208409 -148.261705 
L 231.071095 -144.188977 
L 228.940093 -140.11625 
L 226.810974 -136.043523 
L 224.681895 -131.970795 
L 222.553623 -127.898068 
L 220.429412 -123.825341 
L 218.314772 -119.752614 
L 216.217135 -115.679886 
L 214.145444 -111.607159 
L 212.109707 -107.534432 
L 210.120523 -103.461705 
L 208.18861 -99.388977 
L 206.324366 -95.31625 
L 204.537475 -91.243523 
L 202.836567 -87.170795 
L 201.228954 -83.098068 
L 199.720438 -79.025341 
L 198.315197 -74.952614 
L 197.01574 -70.879886 
L 195.822934 -66.807159 
L 194.736085 -62.734432 
L 193.753072 -58.661705 
L 192.870509 -54.588977 
L 192.083943 -50.51625 
z
" id="ma0343b3667" style="stroke:#737373;stroke-width:1.5;"/>
    </defs>
    <g clip-path="url(#p7e56a0f425)">
     <use style="fill:#95cbec;stroke:#737373;stroke-width:1.5;" x="0" xlink:href="#ma0343b3667" y="531.47625"/>
    </g>
   </g>
   <g id="matplotlib.axis_1">
    <g id="xtick_1">
     <g id="line2d_1">
      <defs>
       <path d="M 0 0 
L 0 3.5 
" id="m453b879f82" style="stroke:#000000;stroke-width:0.8;"/>
      </defs>
      <g>
       <use style="stroke:#000000;stroke-width:0.8;" x="187.471507" xlink:href="#m453b879f82" y="501.12"/>
      </g>
     </g>
     <g id="text_1">
      <!-- 0 -->
      <g transform="translate(184.290257 515.718438)scale(0.1 -0.1)">
       <defs>
        <path d="M 2034 4250 
Q 1547 4250 1301 3770 
Q 1056 3291 1056 2328 
Q 1056 1369 1301 889 
Q 1547 409 2034 409 
Q 2525 409 2770 889 
Q 3016 1369 3016 2328 
Q 3016 3291 2770 3770 
Q 2525 4250 2034 4250 
z
M 2034 4750 
Q 2819 4750 3233 4129 
Q 3647 3509 3647 2328 
Q 3647 1150 3233 529 
Q 2819 -91 2034 -91 
Q 1250 -91 836 529 
Q 422 1150 422 2328 
Q 422 3509 836 4129 
Q 1250 4750 2034 4750 
z
" id="DejaVuSans-30" transform="scale(0.015625)"/>
       </defs>
       <use xlink:href="#DejaVuSans-30"/>
      </g>
     </g>
    </g>
    <g id="xtick_2">
     <g id="line2d_2">
      <g>
       <use style="stroke:#000000;stroke-width:0.8;" x="187.471507" xlink:href="#m453b879f82" y="501.12"/>
      </g>
     </g>
    </g>
    <g id="text_2">
     <!-- Task 1 -->
     <g transform="translate(171.908226 529.396563)scale(0.1 -0.1)">
      <defs>
       <path d="M -19 4666 
L 3928 4666 
L 3928 4134 
L 2272 4134 
L 2272 0 
L 1638 0 
L 1638 4134 
L -19 4134 
L -19 4666 
z
" id="DejaVuSans-54" transform="scale(0.015625)"/>
       <path d="M 2194 1759 
Q 1497 1759 1228 1600 
Q 959 1441 959 1056 
Q 959 750 1161 570 
Q 1363 391 1709 391 
Q 2188 391 2477 730 
Q 2766 1069 2766 1631 
L 2766 1759 
L 2194 1759 
z
M 3341 1997 
L 3341 0 
L 2766 0 
L 2766 531 
Q 2569 213 2275 61 
Q 1981 -91 1556 -91 
Q 1019 -91 701 211 
Q 384 513 384 1019 
Q 384 1609 779 1909 
Q 1175 2209 1959 2209 
L 2766 2209 
L 2766 2266 
Q 2766 2663 2505 2880 
Q 2244 3097 1772 3097 
Q 1472 3097 1187 3025 
Q 903 2953 641 2809 
L 641 3341 
Q 956 3463 1253 3523 
Q 1550 3584 1831 3584 
Q 2591 3584 2966 3190 
Q 3341 2797 3341 1997 
z
" id="DejaVuSans-61" transform="scale(0.015625)"/>
       <path d="M 2834 3397 
L 2834 2853 
Q 2591 2978 2328 3040 
Q 2066 3103 1784 3103 
Q 1356 3103 1142 2972 
Q 928 2841 928 2578 
Q 928 2378 1081 2264 
Q 1234 2150 1697 2047 
L 1894 2003 
Q 2506 1872 2764 1633 
Q 3022 1394 3022 966 
Q 3022 478 2636 193 
Q 2250 -91 1575 -91 
Q 1294 -91 989 -36 
Q 684 19 347 128 
L 347 722 
Q 666 556 975 473 
Q 1284 391 1588 391 
Q 1994 391 2212 530 
Q 2431 669 2431 922 
Q 2431 1156 2273 1281 
Q 2116 1406 1581 1522 
L 1381 1569 
Q 847 1681 609 1914 
Q 372 2147 372 2553 
Q 372 3047 722 3315 
Q 1072 3584 1716 3584 
Q 2034 3584 2315 3537 
Q 2597 3491 2834 3397 
z
" id="DejaVuSans-73" transform="scale(0.015625)"/>
       <path d="M 581 4863 
L 1159 4863 
L 1159 1991 
L 2875 3500 
L 3609 3500 
L 1753 1863 
L 3688 0 
L 2938 0 
L 1159 1709 
L 1159 0 
L 581 0 
L 581 4863 
z
" id="DejaVuSans-6b" transform="scale(0.015625)"/>
       <path id="DejaVuSans-20" transform="scale(0.015625)"/>
       <path d="M 794 531 
L 1825 531 
L 1825 4091 
L 703 3866 
L 703 4441 
L 1819 4666 
L 2450 4666 
L 2450 531 
L 3481 531 
L 3481 0 
L 794 0 
L 794 531 
z
" id="DejaVuSans-31" transform="scale(0.015625)"/>
      </defs>
      <use xlink:href="#DejaVuSans-54"/>
      <use x="44.583984" xlink:href="#DejaVuSans-61"/>
      <use x="105.863281" xlink:href="#DejaVuSans-73"/>
      <use x="157.962891" xlink:href="#DejaVuSans-6b"/>
      <use x="215.873047" xlink:href="#DejaVuSans-20"/>
      <use x="247.660156" xlink:href="#DejaVuSans-31"/>
     </g>
    </g>
   </g>
   <g id="matplotlib.axis_2">
    <g id="ytick_1">
     <g id="line2d_3">
      <defs>
       <path d="M 0 0 
L -3.5 0 
" id="m46959d5ad1" style="stroke:#000000;stroke-width:0.8;"/>
      </defs>
      <g>
       <use style="stroke:#000000;stroke-width:0.8;" x="39.765625" xlink:href="#m46959d5ad1" y="459.373331"/>
      </g>
     </g>
     <g id="text_3">
      <!-- 20 -->
      <g transform="translate(20.040625 463.17255)scale(0.1 -0.1)">
       <defs>
        <path d="M 1228 531 
L 3431 531 
L 3431 0 
L 469 0 
L 469 531 
Q 828 903 1448 1529 
Q 2069 2156 2228 2338 
Q 2531 2678 2651 2914 
Q 2772 3150 2772 3378 
Q 2772 3750 2511 3984 
Q 2250 4219 1831 4219 
Q 1534 4219 1204 4116 
Q 875 4013 500 3803 
L 500 4441 
Q 881 4594 1212 4672 
Q 1544 4750 1819 4750 
Q 2544 4750 2975 4387 
Q 3406 4025 3406 3419 
Q 3406 3131 3298 2873 
Q 3191 2616 2906 2266 
Q 2828 2175 2409 1742 
Q 1991 1309 1228 531 
z
" id="DejaVuSans-32" transform="scale(0.015625)"/>
       </defs>
       <use xlink:href="#DejaVuSans-32"/>
       <use x="63.623047" xlink:href="#DejaVuSans-30"/>
      </g>
     </g>
    </g>
    <g id="ytick_2">
     <g id="line2d_4">
      <g>
       <use style="stroke:#000000;stroke-width:0.8;" x="39.765625" xlink:href="#m46959d5ad1" y="403.555244"/>
      </g>
     </g>
     <g id="text_4">
      <!-- 40 -->
      <g transform="translate(20.040625 407.354462)scale(0.1 -0.1)">
       <defs>
        <path d="M 2419 4116 
L 825 1625 
L 2419 1625 
L 2419 4116 
z
M 2253 4666 
L 3047 4666 
L 3047 1625 
L 3713 1625 
L 3713 1100 
L 3047 1100 
L 3047 0 
L 2419 0 
L 2419 1100 
L 313 1100 
L 313 1709 
L 2253 4666 
z
" id="DejaVuSans-34" transform="scale(0.015625)"/>
       </defs>
       <use xlink:href="#DejaVuSans-34"/>
       <use x="63.623047" xlink:href="#DejaVuSans-30"/>
      </g>
     </g>
    </g>
    <g id="ytick_3">
     <g id="line2d_5">
      <g>
       <use style="stroke:#000000;stroke-width:0.8;" x="39.765625" xlink:href="#m46959d5ad1" y="347.737157"/>
      </g>
     </g>
     <g id="text_5">
      <!-- 60 -->
      <g transform="translate(20.040625 351.536375)scale(0.1 -0.1)">
       <defs>
        <path d="M 2113 2584 
Q 1688 2584 1439 2293 
Q 1191 2003 1191 1497 
Q 1191 994 1439 701 
Q 1688 409 2113 409 
Q 2538 409 2786 701 
Q 3034 994 3034 1497 
Q 3034 2003 2786 2293 
Q 2538 2584 2113 2584 
z
M 3366 4563 
L 3366 3988 
Q 3128 4100 2886 4159 
Q 2644 4219 2406 4219 
Q 1781 4219 1451 3797 
Q 1122 3375 1075 2522 
Q 1259 2794 1537 2939 
Q 1816 3084 2150 3084 
Q 2853 3084 3261 2657 
Q 3669 2231 3669 1497 
Q 3669 778 3244 343 
Q 2819 -91 2113 -91 
Q 1303 -91 875 529 
Q 447 1150 447 2328 
Q 447 3434 972 4092 
Q 1497 4750 2381 4750 
Q 2619 4750 2861 4703 
Q 3103 4656 3366 4563 
z
" id="DejaVuSans-36" transform="scale(0.015625)"/>
       </defs>
       <use xlink:href="#DejaVuSans-36"/>
       <use x="63.623047" xlink:href="#DejaVuSans-30"/>
      </g>
     </g>
    </g>
    <g id="ytick_4">
     <g id="line2d_6">
      <g>
       <use style="stroke:#000000;stroke-width:0.8;" x="39.765625" xlink:href="#m46959d5ad1" y="291.91907"/>
      </g>
     </g>
     <g id="text_6">
      <!-- 80 -->
      <g transform="translate(20.040625 295.718288)scale(0.1 -0.1)">
       <defs>
        <path d="M 2034 2216 
Q 1584 2216 1326 1975 
Q 1069 1734 1069 1313 
Q 1069 891 1326 650 
Q 1584 409 2034 409 
Q 2484 409 2743 651 
Q 3003 894 3003 1313 
Q 3003 1734 2745 1975 
Q 2488 2216 2034 2216 
z
M 1403 2484 
Q 997 2584 770 2862 
Q 544 3141 544 3541 
Q 544 4100 942 4425 
Q 1341 4750 2034 4750 
Q 2731 4750 3128 4425 
Q 3525 4100 3525 3541 
Q 3525 3141 3298 2862 
Q 3072 2584 2669 2484 
Q 3125 2378 3379 2068 
Q 3634 1759 3634 1313 
Q 3634 634 3220 271 
Q 2806 -91 2034 -91 
Q 1263 -91 848 271 
Q 434 634 434 1313 
Q 434 1759 690 2068 
Q 947 2378 1403 2484 
z
M 1172 3481 
Q 1172 3119 1398 2916 
Q 1625 2713 2034 2713 
Q 2441 2713 2670 2916 
Q 2900 3119 2900 3481 
Q 2900 3844 2670 4047 
Q 2441 4250 2034 4250 
Q 1625 4250 1398 4047 
Q 1172 3844 1172 3481 
z
" id="DejaVuSans-38" transform="scale(0.015625)"/>
       </defs>
       <use xlink:href="#DejaVuSans-38"/>
       <use x="63.623047" xlink:href="#DejaVuSans-30"/>
      </g>
     </g>
    </g>
    <g id="ytick_5">
     <g id="line2d_7">
      <g>
       <use style="stroke:#000000;stroke-width:0.8;" x="39.765625" xlink:href="#m46959d5ad1" y="236.100983"/>
      </g>
     </g>
     <g id="text_7">
      <!-- 100 -->
      <g transform="translate(13.678125 239.900201)scale(0.1 -0.1)">
       <use xlink:href="#DejaVuSans-31"/>
       <use x="63.623047" xlink:href="#DejaVuSans-30"/>
       <use x="127.246094" xlink:href="#DejaVuSans-30"/>
      </g>
     </g>
    </g>
    <g id="ytick_6">
     <g id="line2d_8">
      <g>
       <use style="stroke:#000000;stroke-width:0.8;" x="39.765625" xlink:href="#m46959d5ad1" y="180.282895"/>
      </g>
     </g>
     <g id="text_8">
      <!-- 120 -->
      <g transform="translate(13.678125 184.082114)scale(0.1 -0.1)">
       <use xlink:href="#DejaVuSans-31"/>
       <use x="63.623047" xlink:href="#DejaVuSans-32"/>
       <use x="127.246094" xlink:href="#DejaVuSans-30"/>
      </g>
     </g>
    </g>
    <g id="ytick_7">
     <g id="line2d_9">
      <g>
       <use style="stroke:#000000;stroke-width:0.8;" x="39.765625" xlink:href="#m46959d5ad1" y="124.464808"/>
      </g>
     </g>
     <g id="text_9">
      <!-- 140 -->
      <g transform="translate(13.678125 128.264027)scale(0.1 -0.1)">
       <use xlink:href="#DejaVuSans-31"/>
       <use x="63.623047" xlink:href="#DejaVuSans-34"/>
       <use x="127.246094" xlink:href="#DejaVuSans-30"/>
      </g>
     </g>
    </g>
    <g id="ytick_8">
     <g id="line2d_10">
      <g>
       <use style="stroke:#000000;stroke-width:0.8;" x="39.765625" xlink:href="#m46959d5ad1" y="68.646721"/>
      </g>
     </g>
     <g id="text_10">
      <!-- 160 -->
      <g transform="translate(13.678125 72.44594)scale(0.1 -0.1)">
       <use xlink:href="#DejaVuSans-31"/>
       <use x="63.623047" xlink:href="#DejaVuSans-36"/>
       <use x="127.246094" xlink:href="#DejaVuSans-30"/>
      </g>
     </g>
    </g>
    <g id="text_11">
     <!-- Tempo (in secondi) -->
     <g transform="translate(7.598438 326.60375)rotate(-90)scale(0.1 -0.1)">
      <defs>
       <path d="M 3597 1894 
L 3597 1613 
L 953 1613 
Q 991 1019 1311 708 
Q 1631 397 2203 397 
Q 2534 397 2845 478 
Q 3156 559 3463 722 
L 3463 178 
Q 3153 47 2828 -22 
Q 2503 -91 2169 -91 
Q 1331 -91 842 396 
Q 353 884 353 1716 
Q 353 2575 817 3079 
Q 1281 3584 2069 3584 
Q 2775 3584 3186 3129 
Q 3597 2675 3597 1894 
z
M 3022 2063 
Q 3016 2534 2758 2815 
Q 2500 3097 2075 3097 
Q 1594 3097 1305 2825 
Q 1016 2553 972 2059 
L 3022 2063 
z
" id="DejaVuSans-65" transform="scale(0.015625)"/>
       <path d="M 3328 2828 
Q 3544 3216 3844 3400 
Q 4144 3584 4550 3584 
Q 5097 3584 5394 3201 
Q 5691 2819 5691 2113 
L 5691 0 
L 5113 0 
L 5113 2094 
Q 5113 2597 4934 2840 
Q 4756 3084 4391 3084 
Q 3944 3084 3684 2787 
Q 3425 2491 3425 1978 
L 3425 0 
L 2847 0 
L 2847 2094 
Q 2847 2600 2669 2842 
Q 2491 3084 2119 3084 
Q 1678 3084 1418 2786 
Q 1159 2488 1159 1978 
L 1159 0 
L 581 0 
L 581 3500 
L 1159 3500 
L 1159 2956 
Q 1356 3278 1631 3431 
Q 1906 3584 2284 3584 
Q 2666 3584 2933 3390 
Q 3200 3197 3328 2828 
z
" id="DejaVuSans-6d" transform="scale(0.015625)"/>
       <path d="M 1159 525 
L 1159 -1331 
L 581 -1331 
L 581 3500 
L 1159 3500 
L 1159 2969 
Q 1341 3281 1617 3432 
Q 1894 3584 2278 3584 
Q 2916 3584 3314 3078 
Q 3713 2572 3713 1747 
Q 3713 922 3314 415 
Q 2916 -91 2278 -91 
Q 1894 -91 1617 61 
Q 1341 213 1159 525 
z
M 3116 1747 
Q 3116 2381 2855 2742 
Q 2594 3103 2138 3103 
Q 1681 3103 1420 2742 
Q 1159 2381 1159 1747 
Q 1159 1113 1420 752 
Q 1681 391 2138 391 
Q 2594 391 2855 752 
Q 3116 1113 3116 1747 
z
" id="DejaVuSans-70" transform="scale(0.015625)"/>
       <path d="M 1959 3097 
Q 1497 3097 1228 2736 
Q 959 2375 959 1747 
Q 959 1119 1226 758 
Q 1494 397 1959 397 
Q 2419 397 2687 759 
Q 2956 1122 2956 1747 
Q 2956 2369 2687 2733 
Q 2419 3097 1959 3097 
z
M 1959 3584 
Q 2709 3584 3137 3096 
Q 3566 2609 3566 1747 
Q 3566 888 3137 398 
Q 2709 -91 1959 -91 
Q 1206 -91 779 398 
Q 353 888 353 1747 
Q 353 2609 779 3096 
Q 1206 3584 1959 3584 
z
" id="DejaVuSans-6f" transform="scale(0.015625)"/>
       <path d="M 1984 4856 
Q 1566 4138 1362 3434 
Q 1159 2731 1159 2009 
Q 1159 1288 1364 580 
Q 1569 -128 1984 -844 
L 1484 -844 
Q 1016 -109 783 600 
Q 550 1309 550 2009 
Q 550 2706 781 3412 
Q 1013 4119 1484 4856 
L 1984 4856 
z
" id="DejaVuSans-28" transform="scale(0.015625)"/>
       <path d="M 603 3500 
L 1178 3500 
L 1178 0 
L 603 0 
L 603 3500 
z
M 603 4863 
L 1178 4863 
L 1178 4134 
L 603 4134 
L 603 4863 
z
" id="DejaVuSans-69" transform="scale(0.015625)"/>
       <path d="M 3513 2113 
L 3513 0 
L 2938 0 
L 2938 2094 
Q 2938 2591 2744 2837 
Q 2550 3084 2163 3084 
Q 1697 3084 1428 2787 
Q 1159 2491 1159 1978 
L 1159 0 
L 581 0 
L 581 3500 
L 1159 3500 
L 1159 2956 
Q 1366 3272 1645 3428 
Q 1925 3584 2291 3584 
Q 2894 3584 3203 3211 
Q 3513 2838 3513 2113 
z
" id="DejaVuSans-6e" transform="scale(0.015625)"/>
       <path d="M 3122 3366 
L 3122 2828 
Q 2878 2963 2633 3030 
Q 2388 3097 2138 3097 
Q 1578 3097 1268 2742 
Q 959 2388 959 1747 
Q 959 1106 1268 751 
Q 1578 397 2138 397 
Q 2388 397 2633 464 
Q 2878 531 3122 666 
L 3122 134 
Q 2881 22 2623 -34 
Q 2366 -91 2075 -91 
Q 1284 -91 818 406 
Q 353 903 353 1747 
Q 353 2603 823 3093 
Q 1294 3584 2113 3584 
Q 2378 3584 2631 3529 
Q 2884 3475 3122 3366 
z
" id="DejaVuSans-63" transform="scale(0.015625)"/>
       <path d="M 2906 2969 
L 2906 4863 
L 3481 4863 
L 3481 0 
L 2906 0 
L 2906 525 
Q 2725 213 2448 61 
Q 2172 -91 1784 -91 
Q 1150 -91 751 415 
Q 353 922 353 1747 
Q 353 2572 751 3078 
Q 1150 3584 1784 3584 
Q 2172 3584 2448 3432 
Q 2725 3281 2906 2969 
z
M 947 1747 
Q 947 1113 1208 752 
Q 1469 391 1925 391 
Q 2381 391 2643 752 
Q 2906 1113 2906 1747 
Q 2906 2381 2643 2742 
Q 2381 3103 1925 3103 
Q 1469 3103 1208 2742 
Q 947 2381 947 1747 
z
" id="DejaVuSans-64" transform="scale(0.015625)"/>
       <path d="M 513 4856 
L 1013 4856 
Q 1481 4119 1714 3412 
Q 1947 2706 1947 2009 
Q 1947 1309 1714 600 
Q 1481 -109 1013 -844 
L 513 -844 
Q 928 -128 1133 580 
Q 1338 1288 1338 2009 
Q 1338 2731 1133 3434 
Q 928 4138 513 4856 
z
" id="DejaVuSans-29" transform="scale(0.015625)"/>
      </defs>
      <use xlink:href="#DejaVuSans-54"/>
      <use x="44.083984" xlink:href="#DejaVuSans-65"/>
      <use x="105.607422" xlink:href="#DejaVuSans-6d"/>
      <use x="203.019531" xlink:href="#DejaVuSans-70"/>
      <use x="266.496094" xlink:href="#DejaVuSans-6f"/>
      <use x="327.677734" xlink:href="#DejaVuSans-20"/>
      <use x="359.464844" xlink:href="#DejaVuSans-28"/>
      <use x="398.478516" xlink:href="#DejaVuSans-69"/>
      <use x="426.261719" xlink:href="#DejaVuSans-6e"/>
      <use x="489.640625" xlink:href="#DejaVuSans-20"/>
      <use x="521.427734" xlink:href="#DejaVuSans-73"/>
      <use x="573.527344" xlink:href="#DejaVuSans-65"/>
      <use x="635.050781" xlink:href="#DejaVuSans-63"/>
      <use x="690.03125" xlink:href="#DejaVuSans-6f"/>
      <use x="751.212891" xlink:href="#DejaVuSans-6e"/>
      <use x="814.591797" xlink:href="#DejaVuSans-64"/>
      <use x="878.068359" xlink:href="#DejaVuSans-69"/>
      <use x="905.851562" xlink:href="#DejaVuSans-29"/>
     </g>
    </g>
   </g>
   <g id="line2d_11">
    <path clip-path="url(#p7e56a0f425)" d="M 83.557549 291.91907 
L 291.385466 291.91907 
" style="fill:none;stroke:#737373;stroke-linecap:square;stroke-width:0.75;"/>
   </g>
   <g id="line2d_12">
    <path clip-path="url(#p7e56a0f425)" d="M 140.062997 378.437105 
L 234.880018 378.437105 
" style="fill:none;stroke:#737373;stroke-linecap:square;stroke-width:0.75;"/>
   </g>
   <g id="line2d_13">
    <path clip-path="url(#p7e56a0f425)" d="M 75.320675 277.964548 
L 299.62234 277.964548 
" style="fill:none;stroke:#737373;stroke-linecap:square;stroke-width:0.75;"/>
   </g>
   <g id="line2d_14">
    <path clip-path="url(#p7e56a0f425)" d="M 70.549228 250.055504 
L 304.393786 250.055504 
" style="fill:none;stroke:#737373;stroke-linecap:square;stroke-width:0.75;"/>
   </g>
   <g id="line2d_15">
    <path clip-path="url(#p7e56a0f425)" d="M 99.9818 180.282895 
L 274.961215 180.282895 
" style="fill:none;stroke:#737373;stroke-linecap:square;stroke-width:0.75;"/>
   </g>
   <g id="line2d_16">
    <path clip-path="url(#p7e56a0f425)" d="M 93.835778 188.655609 
L 281.107237 188.655609 
" style="fill:none;stroke:#737373;stroke-linecap:square;stroke-width:0.75;"/>
   </g>
   <g id="line2d_17">
    <path clip-path="url(#p7e56a0f425)" d="M 39.765625 277.964548 
L 335.17739 277.964548 
" style="fill:none;stroke:#ff0000;stroke-linecap:square;stroke-width:1.5;"/>
   </g>
   <g id="line2d_18">
    <path clip-path="url(#p7e56a0f425)" d="M 187.471507 288.430439 
L 187.471507 378.437105 
" style="fill:none;stroke:#0000ff;stroke-linecap:square;stroke-width:2;"/>
   </g>
   <g id="line2d_19">
    <path clip-path="url(#p7e56a0f425)" d="M 187.471507 204.005582 
L 187.471507 180.282895 
" style="fill:none;stroke:#0000ff;stroke-linecap:square;stroke-width:2;"/>
   </g>
   <g id="line2d_20">
    <path clip-path="url(#p7e56a0f425)" d="M 176.393566 378.437105 
L 198.549449 378.437105 
" style="fill:none;stroke:#000000;stroke-linecap:square;"/>
   </g>
   <g id="line2d_21">
    <path clip-path="url(#p7e56a0f425)" d="M 176.393566 180.282895 
L 198.549449 180.282895 
" style="fill:none;stroke:#000000;stroke-linecap:square;"/>
   </g>
   <g id="line2d_22"/>
   <g id="patch_3">
    <path clip-path="url(#p7e56a0f425)" d="M 165.315625 288.430439 
L 209.62739 288.430439 
L 209.62739 204.005582 
L 165.315625 204.005582 
L 165.315625 288.430439 
z
" style="fill:#0000ff;stroke:#0000ff;stroke-linejoin:miter;"/>
   </g>
   <g id="line2d_23">
    <path clip-path="url(#p7e56a0f425)" d="M 165.315625 264.010026 
L 209.62739 264.010026 
" style="fill:none;stroke:#ffffff;stroke-linecap:square;stroke-width:2;"/>
   </g>
   <g id="patch_4">
    <path d="M 39.765625 501.12 
L 39.765625 57.6 
" style="fill:none;stroke:#000000;stroke-linecap:square;stroke-linejoin:miter;stroke-width:0.8;"/>
   </g>
   <g id="patch_5">
    <path d="M 335.17739 501.12 
L 335.17739 57.6 
" style="fill:none;stroke:#000000;stroke-linecap:square;stroke-linejoin:miter;stroke-width:0.8;"/>
   </g>
   <g id="patch_6">
    <path d="M 39.765625 501.12 
L 335.17739 501.12 
" style="fill:none;stroke:#000000;stroke-linecap:square;stroke-linejoin:miter;stroke-width:0.8;"/>
   </g>
   <g id="patch_7">
    <path d="M 39.765625 57.6 
L 335.17739 57.6 
" style="fill:none;stroke:#000000;stroke-linecap:square;stroke-linejoin:miter;stroke-width:0.8;"/>
   </g>
  </g>
  <g id="axes_2">
   <g id="patch_8">
    <path d="M 394.259743 501.12 
L 689.671507 501.12 
L 689.671507 57.6 
L 394.259743 57.6 
z
" style="fill:#ffffff;"/>
   </g>
   <g id="PolyCollection_2">
    <defs>
     <path d="M 548.753842 -50.51625 
L 535.177408 -50.51625 
L 533.850533 -54.588977 
L 532.320906 -58.661705 
L 530.569737 -62.734432 
L 528.578926 -66.807159 
L 526.331641 -70.879886 
L 523.812941 -74.952614 
L 521.010458 -79.025341 
L 517.915094 -83.098068 
L 514.521742 -87.170795 
L 510.829982 -91.243523 
L 506.844728 -95.31625 
L 502.576816 -99.388977 
L 498.043473 -103.461705 
L 493.268666 -107.534432 
L 488.283276 -111.607159 
L 483.125099 -115.679886 
L 477.838636 -119.752614 
L 472.474669 -123.825341 
L 467.089609 -127.898068 
L 461.744638 -131.970795 
L 456.504631 -136.043523 
L 451.436907 -140.11625 
L 446.609818 -144.188977 
L 442.091234 -148.261705 
L 437.946952 -152.334432 
L 434.239088 -156.407159 
L 431.024509 -160.479886 
L 428.353356 -164.552614 
L 426.267698 -168.625341 
L 424.80039 -172.698068 
L 423.974152 -176.770795 
L 423.800919 -180.843523 
L 424.281477 -184.91625 
L 425.405401 -188.988977 
L 427.151294 -193.061705 
L 429.487318 -197.134432 
L 432.372003 -201.207159 
L 435.755285 -205.279886 
L 439.579759 -209.352614 
L 443.78208 -213.425341 
L 448.294484 -217.498068 
L 453.04636 -221.570795 
L 457.965838 -225.643523 
L 462.981338 -229.71625 
L 468.023039 -233.788977 
L 473.024236 -237.861705 
L 477.922546 -241.934432 
L 482.660946 -246.007159 
L 487.188628 -250.079886 
L 491.461663 -254.152614 
L 495.443467 -258.225341 
L 499.105082 -262.298068 
L 502.425278 -266.370795 
L 505.390488 -270.443523 
L 507.994591 -274.51625 
L 510.238566 -278.588977 
L 512.13003 -282.661705 
L 513.682679 -286.734432 
L 514.915647 -290.807159 
L 515.852807 -294.879886 
L 516.522018 -298.952614 
L 516.954344 -303.025341 
L 517.183247 -307.098068 
L 517.243779 -311.170795 
L 517.171772 -315.243523 
L 517.003054 -319.31625 
L 516.772694 -323.388977 
L 516.514288 -327.461705 
L 516.259307 -331.534432 
L 516.036513 -335.607159 
L 515.871458 -339.679886 
L 515.786076 -343.752614 
L 515.798379 -347.825341 
L 515.922253 -351.898068 
L 516.16738 -355.970795 
L 516.539258 -360.043523 
L 517.039342 -364.11625 
L 517.665279 -368.188977 
L 518.411238 -372.261705 
L 519.268321 -376.334432 
L 520.225033 -380.407159 
L 521.267797 -384.479886 
L 522.381496 -388.552614 
L 523.550023 -392.625341 
L 524.75681 -396.698068 
L 525.985339 -400.770795 
L 527.2196 -404.843523 
L 528.444496 -408.91625 
L 529.646177 -412.988977 
L 530.812307 -417.061705 
L 531.932252 -421.134432 
L 532.997198 -425.207159 
L 534.000196 -429.279886 
L 534.936141 -433.352614 
L 535.8017 -437.425341 
L 536.59519 -441.498068 
L 537.31642 -445.570795 
L 537.966508 -449.643523 
L 538.54768 -453.71625 
L 545.38357 -453.71625 
L 545.38357 -453.71625 
L 545.964742 -449.643523 
L 546.61483 -445.570795 
L 547.33606 -441.498068 
L 548.12955 -437.425341 
L 548.995109 -433.352614 
L 549.931054 -429.279886 
L 550.934052 -425.207159 
L 551.998998 -421.134432 
L 553.118943 -417.061705 
L 554.285073 -412.988977 
L 555.486754 -408.91625 
L 556.71165 -404.843523 
L 557.945911 -400.770795 
L 559.17444 -396.698068 
L 560.381227 -392.625341 
L 561.549754 -388.552614 
L 562.663453 -384.479886 
L 563.706217 -380.407159 
L 564.662929 -376.334432 
L 565.520012 -372.261705 
L 566.265971 -368.188977 
L 566.891908 -364.11625 
L 567.391992 -360.043523 
L 567.76387 -355.970795 
L 568.008997 -351.898068 
L 568.132871 -347.825341 
L 568.145174 -343.752614 
L 568.059792 -339.679886 
L 567.894737 -335.607159 
L 567.671943 -331.534432 
L 567.416962 -327.461705 
L 567.158556 -323.388977 
L 566.928196 -319.31625 
L 566.759478 -315.243523 
L 566.687471 -311.170795 
L 566.748003 -307.098068 
L 566.976906 -303.025341 
L 567.409232 -298.952614 
L 568.078443 -294.879886 
L 569.015603 -290.807159 
L 570.248571 -286.734432 
L 571.80122 -282.661705 
L 573.692684 -278.588977 
L 575.936659 -274.51625 
L 578.540762 -270.443523 
L 581.505972 -266.370795 
L 584.826168 -262.298068 
L 588.487783 -258.225341 
L 592.469587 -254.152614 
L 596.742622 -250.079886 
L 601.270304 -246.007159 
L 606.008704 -241.934432 
L 610.907014 -237.861705 
L 615.908211 -233.788977 
L 620.949912 -229.71625 
L 625.965412 -225.643523 
L 630.88489 -221.570795 
L 635.636766 -217.498068 
L 640.14917 -213.425341 
L 644.351491 -209.352614 
L 648.175965 -205.279886 
L 651.559247 -201.207159 
L 654.443932 -197.134432 
L 656.779956 -193.061705 
L 658.525849 -188.988977 
L 659.649773 -184.91625 
L 660.130331 -180.843523 
L 659.957098 -176.770795 
L 659.13086 -172.698068 
L 657.663552 -168.625341 
L 655.577894 -164.552614 
L 652.906741 -160.479886 
L 649.692162 -156.407159 
L 645.984298 -152.334432 
L 641.840016 -148.261705 
L 637.321432 -144.188977 
L 632.494343 -140.11625 
L 627.426619 -136.043523 
L 622.186612 -131.970795 
L 616.841641 -127.898068 
L 611.456581 -123.825341 
L 606.092614 -119.752614 
L 600.806151 -115.679886 
L 595.647974 -111.607159 
L 590.662584 -107.534432 
L 585.887777 -103.461705 
L 581.354434 -99.388977 
L 577.086522 -95.31625 
L 573.101268 -91.243523 
L 569.409508 -87.170795 
L 566.016156 -83.098068 
L 562.920792 -79.025341 
L 560.118309 -74.952614 
L 557.599609 -70.879886 
L 555.352324 -66.807159 
L 553.361513 -62.734432 
L 551.610344 -58.661705 
L 550.080717 -54.588977 
L 548.753842 -50.51625 
z
" id="mcc9b405726" style="stroke:#737373;stroke-width:1.5;"/>
    </defs>
    <g clip-path="url(#pe68a2c3c14)">
     <use style="fill:#95cbec;stroke:#737373;stroke-width:1.5;" x="0" xlink:href="#mcc9b405726" y="531.47625"/>
    </g>
   </g>
   <g id="matplotlib.axis_3">
    <g id="xtick_3">
     <g id="line2d_24">
      <g>
       <use style="stroke:#000000;stroke-width:0.8;" x="541.965625" xlink:href="#m453b879f82" y="501.12"/>
      </g>
     </g>
     <g id="text_12">
      <!-- 0 -->
      <g transform="translate(538.784375 515.718438)scale(0.1 -0.1)">
       <use xlink:href="#DejaVuSans-30"/>
      </g>
     </g>
    </g>
    <g id="xtick_4">
     <g id="line2d_25">
      <g>
       <use style="stroke:#000000;stroke-width:0.8;" x="541.965625" xlink:href="#m453b879f82" y="501.12"/>
      </g>
     </g>
    </g>
    <g id="text_13">
     <!-- Task 2 -->
     <g transform="translate(526.402344 529.396563)scale(0.1 -0.1)">
      <use xlink:href="#DejaVuSans-54"/>
      <use x="44.583984" xlink:href="#DejaVuSans-61"/>
      <use x="105.863281" xlink:href="#DejaVuSans-73"/>
      <use x="157.962891" xlink:href="#DejaVuSans-6b"/>
      <use x="215.873047" xlink:href="#DejaVuSans-20"/>
      <use x="247.660156" xlink:href="#DejaVuSans-32"/>
     </g>
    </g>
   </g>
   <g id="matplotlib.axis_4">
    <g id="ytick_9">
     <g id="line2d_26">
      <g>
       <use style="stroke:#000000;stroke-width:0.8;" x="394.259743" xlink:href="#m46959d5ad1" y="482.996843"/>
      </g>
     </g>
     <g id="text_14">
      <!-- 0 -->
      <g transform="translate(380.897243 486.796062)scale(0.1 -0.1)">
       <use xlink:href="#DejaVuSans-30"/>
      </g>
     </g>
    </g>
    <g id="ytick_10">
     <g id="line2d_27">
      <g>
       <use style="stroke:#000000;stroke-width:0.8;" x="394.259743" xlink:href="#m46959d5ad1" y="432.403839"/>
      </g>
     </g>
     <g id="text_15">
      <!-- 20 -->
      <g transform="translate(374.534743 436.203058)scale(0.1 -0.1)">
       <use xlink:href="#DejaVuSans-32"/>
       <use x="63.623047" xlink:href="#DejaVuSans-30"/>
      </g>
     </g>
    </g>
    <g id="ytick_11">
     <g id="line2d_28">
      <g>
       <use style="stroke:#000000;stroke-width:0.8;" x="394.259743" xlink:href="#m46959d5ad1" y="381.810834"/>
      </g>
     </g>
     <g id="text_16">
      <!-- 40 -->
      <g transform="translate(374.534743 385.610053)scale(0.1 -0.1)">
       <use xlink:href="#DejaVuSans-34"/>
       <use x="63.623047" xlink:href="#DejaVuSans-30"/>
      </g>
     </g>
    </g>
    <g id="ytick_12">
     <g id="line2d_29">
      <g>
       <use style="stroke:#000000;stroke-width:0.8;" x="394.259743" xlink:href="#m46959d5ad1" y="331.21783"/>
      </g>
     </g>
     <g id="text_17">
      <!-- 60 -->
      <g transform="translate(374.534743 335.017048)scale(0.1 -0.1)">
       <use xlink:href="#DejaVuSans-36"/>
       <use x="63.623047" xlink:href="#DejaVuSans-30"/>
      </g>
     </g>
    </g>
    <g id="ytick_13">
     <g id="line2d_30">
      <g>
       <use style="stroke:#000000;stroke-width:0.8;" x="394.259743" xlink:href="#m46959d5ad1" y="280.624825"/>
      </g>
     </g>
     <g id="text_18">
      <!-- 80 -->
      <g transform="translate(374.534743 284.424044)scale(0.1 -0.1)">
       <use xlink:href="#DejaVuSans-38"/>
       <use x="63.623047" xlink:href="#DejaVuSans-30"/>
      </g>
     </g>
    </g>
    <g id="ytick_14">
     <g id="line2d_31">
      <g>
       <use style="stroke:#000000;stroke-width:0.8;" x="394.259743" xlink:href="#m46959d5ad1" y="230.031821"/>
      </g>
     </g>
     <g id="text_19">
      <!-- 100 -->
      <g transform="translate(368.172243 233.831039)scale(0.1 -0.1)">
       <use xlink:href="#DejaVuSans-31"/>
       <use x="63.623047" xlink:href="#DejaVuSans-30"/>
       <use x="127.246094" xlink:href="#DejaVuSans-30"/>
      </g>
     </g>
    </g>
    <g id="ytick_15">
     <g id="line2d_32">
      <g>
       <use style="stroke:#000000;stroke-width:0.8;" x="394.259743" xlink:href="#m46959d5ad1" y="179.438816"/>
      </g>
     </g>
     <g id="text_20">
      <!-- 120 -->
      <g transform="translate(368.172243 183.238035)scale(0.1 -0.1)">
       <use xlink:href="#DejaVuSans-31"/>
       <use x="63.623047" xlink:href="#DejaVuSans-32"/>
       <use x="127.246094" xlink:href="#DejaVuSans-30"/>
      </g>
     </g>
    </g>
    <g id="ytick_16">
     <g id="line2d_33">
      <g>
       <use style="stroke:#000000;stroke-width:0.8;" x="394.259743" xlink:href="#m46959d5ad1" y="128.845811"/>
      </g>
     </g>
     <g id="text_21">
      <!-- 140 -->
      <g transform="translate(368.172243 132.64503)scale(0.1 -0.1)">
       <use xlink:href="#DejaVuSans-31"/>
       <use x="63.623047" xlink:href="#DejaVuSans-34"/>
       <use x="127.246094" xlink:href="#DejaVuSans-30"/>
      </g>
     </g>
    </g>
    <g id="ytick_17">
     <g id="line2d_34">
      <g>
       <use style="stroke:#000000;stroke-width:0.8;" x="394.259743" xlink:href="#m46959d5ad1" y="78.252807"/>
      </g>
     </g>
     <g id="text_22">
      <!-- 160 -->
      <g transform="translate(368.172243 82.052026)scale(0.1 -0.1)">
       <use xlink:href="#DejaVuSans-31"/>
       <use x="63.623047" xlink:href="#DejaVuSans-36"/>
       <use x="127.246094" xlink:href="#DejaVuSans-30"/>
      </g>
     </g>
    </g>
    <g id="text_23">
     <!-- Tempo (in secondi) -->
     <g transform="translate(362.092555 326.60375)rotate(-90)scale(0.1 -0.1)">
      <use xlink:href="#DejaVuSans-54"/>
      <use x="44.083984" xlink:href="#DejaVuSans-65"/>
      <use x="105.607422" xlink:href="#DejaVuSans-6d"/>
      <use x="203.019531" xlink:href="#DejaVuSans-70"/>
      <use x="266.496094" xlink:href="#DejaVuSans-6f"/>
      <use x="327.677734" xlink:href="#DejaVuSans-20"/>
      <use x="359.464844" xlink:href="#DejaVuSans-28"/>
      <use x="398.478516" xlink:href="#DejaVuSans-69"/>
      <use x="426.261719" xlink:href="#DejaVuSans-6e"/>
      <use x="489.640625" xlink:href="#DejaVuSans-20"/>
      <use x="521.427734" xlink:href="#DejaVuSans-73"/>
      <use x="573.527344" xlink:href="#DejaVuSans-65"/>
      <use x="635.050781" xlink:href="#DejaVuSans-63"/>
      <use x="690.03125" xlink:href="#DejaVuSans-6f"/>
      <use x="751.212891" xlink:href="#DejaVuSans-6e"/>
      <use x="814.591797" xlink:href="#DejaVuSans-64"/>
      <use x="878.068359" xlink:href="#DejaVuSans-69"/>
      <use x="905.851562" xlink:href="#DejaVuSans-29"/>
     </g>
    </g>
   </g>
   <g id="line2d_35">
    <path clip-path="url(#pe68a2c3c14)" d="M 516.182687 179.438816 
L 567.748563 179.438816 
" style="fill:none;stroke:#737373;stroke-linecap:square;stroke-width:0.75;"/>
   </g>
   <g id="line2d_36">
    <path clip-path="url(#pe68a2c3c14)" d="M 425.154067 356.514332 
L 658.777183 356.514332 
" style="fill:none;stroke:#737373;stroke-linecap:square;stroke-width:0.75;"/>
   </g>
   <g id="line2d_37">
    <path clip-path="url(#pe68a2c3c14)" d="M 425.154067 356.514332 
L 658.777183 356.514332 
" style="fill:none;stroke:#737373;stroke-linecap:square;stroke-width:0.75;"/>
   </g>
   <g id="line2d_38">
    <path clip-path="url(#pe68a2c3c14)" d="M 426.571004 343.866081 
L 657.360246 343.866081 
" style="fill:none;stroke:#737373;stroke-linecap:square;stroke-width:0.75;"/>
   </g>
   <g id="line2d_39">
    <path clip-path="url(#pe68a2c3c14)" d="M 438.987139 379.281184 
L 644.944111 379.281184 
" style="fill:none;stroke:#737373;stroke-linecap:square;stroke-width:0.75;"/>
   </g>
   <g id="line2d_40">
    <path clip-path="url(#pe68a2c3c14)" d="M 440.603618 321.099229 
L 643.327632 321.099229 
" style="fill:none;stroke:#737373;stroke-linecap:square;stroke-width:0.75;"/>
   </g>
   <g id="line2d_41">
    <path clip-path="url(#pe68a2c3c14)" d="M 394.259743 356.514332 
L 689.671507 356.514332 
" style="fill:none;stroke:#ff0000;stroke-linecap:square;stroke-width:1.5;"/>
   </g>
   <g id="line2d_42">
    <path clip-path="url(#pe68a2c3c14)" d="M 541.965625 356.514332 
L 541.965625 379.281184 
" style="fill:none;stroke:#0000ff;stroke-linecap:square;stroke-width:2;"/>
   </g>
   <g id="line2d_43">
    <path clip-path="url(#pe68a2c3c14)" d="M 541.965625 326.790942 
L 541.965625 321.099229 
" style="fill:none;stroke:#0000ff;stroke-linecap:square;stroke-width:2;"/>
   </g>
   <g id="line2d_44">
    <path clip-path="url(#pe68a2c3c14)" d="M 530.887684 379.281184 
L 553.043566 379.281184 
" style="fill:none;stroke:#000000;stroke-linecap:square;"/>
   </g>
   <g id="line2d_45">
    <path clip-path="url(#pe68a2c3c14)" d="M 530.887684 321.099229 
L 553.043566 321.099229 
" style="fill:none;stroke:#000000;stroke-linecap:square;"/>
   </g>
   <g id="line2d_46">
    <defs>
     <path d="M 0 3 
C 0.795609 3 1.55874 2.683901 2.12132 2.12132 
C 2.683901 1.55874 3 0.795609 3 0 
C 3 -0.795609 2.683901 -1.55874 2.12132 -2.12132 
C 1.55874 -2.683901 0.795609 -3 0 -3 
C -0.795609 -3 -1.55874 -2.683901 -2.12132 -2.12132 
C -2.683901 -1.55874 -3 -0.795609 -3 0 
C -3 0.795609 -2.683901 1.55874 -2.12132 2.12132 
C -1.55874 2.683901 -0.795609 3 0 3 
z
" id="mca63e913e7" style="stroke:#000000;"/>
    </defs>
    <g clip-path="url(#pe68a2c3c14)">
     <use style="fill-opacity:0;stroke:#000000;" x="541.965625" xlink:href="#mca63e913e7" y="179.438816"/>
    </g>
   </g>
   <g id="patch_9">
    <path clip-path="url(#pe68a2c3c14)" d="M 519.809743 356.514332 
L 564.121507 356.514332 
L 564.121507 326.790942 
L 519.809743 326.790942 
L 519.809743 356.514332 
z
" style="fill:#0000ff;stroke:#0000ff;stroke-linejoin:miter;"/>
   </g>
   <g id="line2d_47">
    <path clip-path="url(#pe68a2c3c14)" d="M 519.809743 350.190206 
L 564.121507 350.190206 
" style="fill:none;stroke:#ffffff;stroke-linecap:square;stroke-width:2;"/>
   </g>
   <g id="patch_10">
    <path d="M 394.259743 501.12 
L 394.259743 57.6 
" style="fill:none;stroke:#000000;stroke-linecap:square;stroke-linejoin:miter;stroke-width:0.8;"/>
   </g>
   <g id="patch_11">
    <path d="M 689.671507 501.12 
L 689.671507 57.6 
" style="fill:none;stroke:#000000;stroke-linecap:square;stroke-linejoin:miter;stroke-width:0.8;"/>
   </g>
   <g id="patch_12">
    <path d="M 394.259743 501.12 
L 689.671507 501.12 
" style="fill:none;stroke:#000000;stroke-linecap:square;stroke-linejoin:miter;stroke-width:0.8;"/>
   </g>
   <g id="patch_13">
    <path d="M 394.259743 57.6 
L 689.671507 57.6 
" style="fill:none;stroke:#000000;stroke-linecap:square;stroke-linejoin:miter;stroke-width:0.8;"/>
   </g>
  </g>
  <g id="axes_3">
   <g id="patch_14">
    <path d="M 748.75386 501.12 
L 1044.165625 501.12 
L 1044.165625 57.6 
L 748.75386 57.6 
z
" style="fill:#ffffff;"/>
   </g>
   <g id="PolyCollection_3">
    <defs>
     <path d="M 901.017953 -50.51625 
L 891.901532 -50.51625 
L 891.099777 -54.588977 
L 890.193956 -58.661705 
L 889.17773 -62.734432 
L 888.045655 -66.807159 
L 886.793421 -70.879886 
L 885.418088 -74.952614 
L 883.9183 -79.025341 
L 882.29449 -83.098068 
L 880.549033 -87.170795 
L 878.686374 -91.243523 
L 876.713092 -95.31625 
L 874.637905 -99.388977 
L 872.471621 -103.461705 
L 870.227005 -107.534432 
L 867.918588 -111.607159 
L 865.5624 -115.679886 
L 863.175645 -119.752614 
L 860.776309 -123.825341 
L 858.382729 -127.898068 
L 856.013115 -131.970795 
L 853.685058 -136.043523 
L 851.415011 -140.11625 
L 849.217794 -144.188977 
L 847.106104 -148.261705 
L 845.09007 -152.334432 
L 843.176854 -156.407159 
L 841.370328 -160.479886 
L 839.670821 -164.552614 
L 838.074968 -168.625341 
L 836.575657 -172.698068 
L 835.162095 -176.770795 
L 833.81999 -180.843523 
L 832.531853 -184.91625 
L 831.277435 -188.988977 
L 830.034268 -193.061705 
L 828.778331 -197.134432 
L 827.484812 -201.207159 
L 826.128953 -205.279886 
L 824.686957 -209.352614 
L 823.136937 -213.425341 
L 821.459861 -217.498068 
L 819.640481 -221.570795 
L 817.668193 -225.643523 
L 815.537797 -229.71625 
L 813.250129 -233.788977 
L 810.812519 -237.861705 
L 808.239059 -241.934432 
L 805.550648 -246.007159 
L 802.77481 -250.079886 
L 799.945269 -254.152614 
L 797.101298 -258.225341 
L 794.286848 -262.298068 
L 791.549486 -266.370795 
L 788.939175 -270.443523 
L 786.50694 -274.51625 
L 784.30347 -278.588977 
L 782.377705 -282.661705 
L 780.775456 -286.734432 
L 779.538124 -290.807159 
L 778.701548 -294.879886 
L 778.295037 -298.952614 
L 778.340603 -303.025341 
L 778.85244 -307.098068 
L 779.836632 -311.170795 
L 781.291118 -315.243523 
L 783.205891 -319.31625 
L 785.563412 -323.388977 
L 788.339222 -327.461705 
L 791.502715 -331.534432 
L 795.01803 -335.607159 
L 798.845039 -339.679886 
L 802.940374 -343.752614 
L 807.258477 -347.825341 
L 811.752623 -351.898068 
L 816.375893 -355.970795 
L 821.08208 -360.043523 
L 825.826494 -364.11625 
L 830.566673 -368.188977 
L 835.262971 -372.261705 
L 839.879038 -376.334432 
L 844.382181 -380.407159 
L 848.743616 -384.479886 
L 852.938617 -388.552614 
L 856.946565 -392.625341 
L 860.750917 -396.698068 
L 864.339097 -400.770795 
L 867.702326 -404.843523 
L 870.835392 -408.91625 
L 873.736382 -412.988977 
L 876.406381 -417.061705 
L 878.849146 -421.134432 
L 881.070761 -425.207159 
L 883.079292 -429.279886 
L 884.884438 -433.352614 
L 886.497193 -437.425341 
L 887.929518 -441.498068 
L 889.194033 -445.570795 
L 890.303737 -449.643523 
L 891.271745 -453.71625 
L 901.647741 -453.71625 
L 901.647741 -453.71625 
L 902.615749 -449.643523 
L 903.725452 -445.570795 
L 904.989967 -441.498068 
L 906.422292 -437.425341 
L 908.035047 -433.352614 
L 909.840194 -429.279886 
L 911.848725 -425.207159 
L 914.070339 -421.134432 
L 916.513104 -417.061705 
L 919.183104 -412.988977 
L 922.084094 -408.91625 
L 925.217159 -404.843523 
L 928.580388 -400.770795 
L 932.168568 -396.698068 
L 935.97292 -392.625341 
L 939.980868 -388.552614 
L 944.175869 -384.479886 
L 948.537305 -380.407159 
L 953.040448 -376.334432 
L 957.656514 -372.261705 
L 962.352812 -368.188977 
L 967.092991 -364.11625 
L 971.837405 -360.043523 
L 976.543592 -355.970795 
L 981.166862 -351.898068 
L 985.661008 -347.825341 
L 989.979112 -343.752614 
L 994.074447 -339.679886 
L 997.901455 -335.607159 
L 1001.41677 -331.534432 
L 1004.580263 -327.461705 
L 1007.356074 -323.388977 
L 1009.713594 -319.31625 
L 1011.628367 -315.243523 
L 1013.082853 -311.170795 
L 1014.067045 -307.098068 
L 1014.578882 -303.025341 
L 1014.624449 -298.952614 
L 1014.217937 -294.879886 
L 1013.381361 -290.807159 
L 1012.144029 -286.734432 
L 1010.54178 -282.661705 
L 1008.616015 -278.588977 
L 1006.412545 -274.51625 
L 1003.98031 -270.443523 
L 1001.369999 -266.370795 
L 998.632637 -262.298068 
L 995.818187 -258.225341 
L 992.974217 -254.152614 
L 990.144675 -250.079886 
L 987.368837 -246.007159 
L 984.680426 -241.934432 
L 982.106966 -237.861705 
L 979.669357 -233.788977 
L 977.381688 -229.71625 
L 975.251292 -225.643523 
L 973.279004 -221.570795 
L 971.459624 -217.498068 
L 969.782548 -213.425341 
L 968.232528 -209.352614 
L 966.790532 -205.279886 
L 965.434673 -201.207159 
L 964.141154 -197.134432 
L 962.885217 -193.061705 
L 961.64205 -188.988977 
L 960.387632 -184.91625 
L 959.099496 -180.843523 
L 957.75739 -176.770795 
L 956.343828 -172.698068 
L 954.844517 -168.625341 
L 953.248664 -164.552614 
L 951.549157 -160.479886 
L 949.742631 -156.407159 
L 947.829416 -152.334432 
L 945.813381 -148.261705 
L 943.701691 -144.188977 
L 941.504474 -140.11625 
L 939.234428 -136.043523 
L 936.90637 -131.970795 
L 934.536757 -127.898068 
L 932.143176 -123.825341 
L 929.74384 -119.752614 
L 927.357085 -115.679886 
L 925.000897 -111.607159 
L 922.69248 -107.534432 
L 920.447864 -103.461705 
L 918.28158 -99.388977 
L 916.206394 -95.31625 
L 914.233111 -91.243523 
L 912.370452 -87.170795 
L 910.624996 -83.098068 
L 909.001185 -79.025341 
L 907.501398 -74.952614 
L 906.126064 -70.879886 
L 904.87383 -66.807159 
L 903.741755 -62.734432 
L 902.72553 -58.661705 
L 901.819709 -54.588977 
L 901.017953 -50.51625 
z
" id="m537d86ba97" style="stroke:#737373;stroke-width:1.5;"/>
    </defs>
    <g clip-path="url(#pd19417826c)">
     <use style="fill:#95cbec;stroke:#737373;stroke-width:1.5;" x="0" xlink:href="#m537d86ba97" y="531.47625"/>
    </g>
   </g>
   <g id="matplotlib.axis_5">
    <g id="xtick_5">
     <g id="line2d_48">
      <g>
       <use style="stroke:#000000;stroke-width:0.8;" x="896.459743" xlink:href="#m453b879f82" y="501.12"/>
      </g>
     </g>
     <g id="text_24">
      <!-- 0 -->
      <g transform="translate(893.278493 515.718438)scale(0.1 -0.1)">
       <use xlink:href="#DejaVuSans-30"/>
      </g>
     </g>
    </g>
    <g id="xtick_6">
     <g id="line2d_49">
      <g>
       <use style="stroke:#000000;stroke-width:0.8;" x="896.459743" xlink:href="#m453b879f82" y="501.12"/>
      </g>
     </g>
    </g>
    <g id="text_25">
     <!-- Task 3 -->
     <g transform="translate(880.896461 529.396563)scale(0.1 -0.1)">
      <defs>
       <path d="M 2597 2516 
Q 3050 2419 3304 2112 
Q 3559 1806 3559 1356 
Q 3559 666 3084 287 
Q 2609 -91 1734 -91 
Q 1441 -91 1130 -33 
Q 819 25 488 141 
L 488 750 
Q 750 597 1062 519 
Q 1375 441 1716 441 
Q 2309 441 2620 675 
Q 2931 909 2931 1356 
Q 2931 1769 2642 2001 
Q 2353 2234 1838 2234 
L 1294 2234 
L 1294 2753 
L 1863 2753 
Q 2328 2753 2575 2939 
Q 2822 3125 2822 3475 
Q 2822 3834 2567 4026 
Q 2313 4219 1838 4219 
Q 1578 4219 1281 4162 
Q 984 4106 628 3988 
L 628 4550 
Q 988 4650 1302 4700 
Q 1616 4750 1894 4750 
Q 2613 4750 3031 4423 
Q 3450 4097 3450 3541 
Q 3450 3153 3228 2886 
Q 3006 2619 2597 2516 
z
" id="DejaVuSans-33" transform="scale(0.015625)"/>
      </defs>
      <use xlink:href="#DejaVuSans-54"/>
      <use x="44.583984" xlink:href="#DejaVuSans-61"/>
      <use x="105.863281" xlink:href="#DejaVuSans-73"/>
      <use x="157.962891" xlink:href="#DejaVuSans-6b"/>
      <use x="215.873047" xlink:href="#DejaVuSans-20"/>
      <use x="247.660156" xlink:href="#DejaVuSans-33"/>
     </g>
    </g>
   </g>
   <g id="matplotlib.axis_6">
    <g id="ytick_18">
     <g id="line2d_50">
      <g>
       <use style="stroke:#000000;stroke-width:0.8;" x="748.75386" xlink:href="#m46959d5ad1" y="483.300107"/>
      </g>
     </g>
     <g id="text_26">
      <!-- 20 -->
      <g transform="translate(729.02886 487.099326)scale(0.1 -0.1)">
       <use xlink:href="#DejaVuSans-32"/>
       <use x="63.623047" xlink:href="#DejaVuSans-30"/>
      </g>
     </g>
    </g>
    <g id="ytick_19">
     <g id="line2d_51">
      <g>
       <use style="stroke:#000000;stroke-width:0.8;" x="748.75386" xlink:href="#m46959d5ad1" y="415.88189"/>
      </g>
     </g>
     <g id="text_27">
      <!-- 40 -->
      <g transform="translate(729.02886 419.681109)scale(0.1 -0.1)">
       <use xlink:href="#DejaVuSans-34"/>
       <use x="63.623047" xlink:href="#DejaVuSans-30"/>
      </g>
     </g>
    </g>
    <g id="ytick_20">
     <g id="line2d_52">
      <g>
       <use style="stroke:#000000;stroke-width:0.8;" x="748.75386" xlink:href="#m46959d5ad1" y="348.463673"/>
      </g>
     </g>
     <g id="text_28">
      <!-- 60 -->
      <g transform="translate(729.02886 352.262891)scale(0.1 -0.1)">
       <use xlink:href="#DejaVuSans-36"/>
       <use x="63.623047" xlink:href="#DejaVuSans-30"/>
      </g>
     </g>
    </g>
    <g id="ytick_21">
     <g id="line2d_53">
      <g>
       <use style="stroke:#000000;stroke-width:0.8;" x="748.75386" xlink:href="#m46959d5ad1" y="281.045455"/>
      </g>
     </g>
     <g id="text_29">
      <!-- 80 -->
      <g transform="translate(729.02886 284.844674)scale(0.1 -0.1)">
       <use xlink:href="#DejaVuSans-38"/>
       <use x="63.623047" xlink:href="#DejaVuSans-30"/>
      </g>
     </g>
    </g>
    <g id="ytick_22">
     <g id="line2d_54">
      <g>
       <use style="stroke:#000000;stroke-width:0.8;" x="748.75386" xlink:href="#m46959d5ad1" y="213.627238"/>
      </g>
     </g>
     <g id="text_30">
      <!-- 100 -->
      <g transform="translate(722.66636 217.426457)scale(0.1 -0.1)">
       <use xlink:href="#DejaVuSans-31"/>
       <use x="63.623047" xlink:href="#DejaVuSans-30"/>
       <use x="127.246094" xlink:href="#DejaVuSans-30"/>
      </g>
     </g>
    </g>
    <g id="ytick_23">
     <g id="line2d_55">
      <g>
       <use style="stroke:#000000;stroke-width:0.8;" x="748.75386" xlink:href="#m46959d5ad1" y="146.209021"/>
      </g>
     </g>
     <g id="text_31">
      <!-- 120 -->
      <g transform="translate(722.66636 150.00824)scale(0.1 -0.1)">
       <use xlink:href="#DejaVuSans-31"/>
       <use x="63.623047" xlink:href="#DejaVuSans-32"/>
       <use x="127.246094" xlink:href="#DejaVuSans-30"/>
      </g>
     </g>
    </g>
    <g id="ytick_24">
     <g id="line2d_56">
      <g>
       <use style="stroke:#000000;stroke-width:0.8;" x="748.75386" xlink:href="#m46959d5ad1" y="78.790804"/>
      </g>
     </g>
     <g id="text_32">
      <!-- 140 -->
      <g transform="translate(722.66636 82.590022)scale(0.1 -0.1)">
       <use xlink:href="#DejaVuSans-31"/>
       <use x="63.623047" xlink:href="#DejaVuSans-34"/>
       <use x="127.246094" xlink:href="#DejaVuSans-30"/>
      </g>
     </g>
    </g>
    <g id="text_33">
     <!-- Tempo (in secondi) -->
     <g transform="translate(716.586673 326.60375)rotate(-90)scale(0.1 -0.1)">
      <use xlink:href="#DejaVuSans-54"/>
      <use x="44.083984" xlink:href="#DejaVuSans-65"/>
      <use x="105.607422" xlink:href="#DejaVuSans-6d"/>
      <use x="203.019531" xlink:href="#DejaVuSans-70"/>
      <use x="266.496094" xlink:href="#DejaVuSans-6f"/>
      <use x="327.677734" xlink:href="#DejaVuSans-20"/>
      <use x="359.464844" xlink:href="#DejaVuSans-28"/>
      <use x="398.478516" xlink:href="#DejaVuSans-69"/>
      <use x="426.261719" xlink:href="#DejaVuSans-6e"/>
      <use x="489.640625" xlink:href="#DejaVuSans-20"/>
      <use x="521.427734" xlink:href="#DejaVuSans-73"/>
      <use x="573.527344" xlink:href="#DejaVuSans-65"/>
      <use x="635.050781" xlink:href="#DejaVuSans-63"/>
      <use x="690.03125" xlink:href="#DejaVuSans-6f"/>
      <use x="751.212891" xlink:href="#DejaVuSans-6e"/>
      <use x="814.591797" xlink:href="#DejaVuSans-64"/>
      <use x="878.068359" xlink:href="#DejaVuSans-69"/>
      <use x="905.851562" xlink:href="#DejaVuSans-29"/>
     </g>
    </g>
   </g>
   <g id="line2d_57">
    <path clip-path="url(#pd19417826c)" d="M 826.832261 324.867297 
L 966.087225 324.867297 
" style="fill:none;stroke:#737373;stroke-linecap:square;stroke-width:0.75;"/>
   </g>
   <g id="line2d_58">
    <path clip-path="url(#pd19417826c)" d="M 783.518526 247.336347 
L 1009.40096 247.336347 
" style="fill:none;stroke:#737373;stroke-linecap:square;stroke-width:0.75;"/>
   </g>
   <g id="line2d_59">
    <path clip-path="url(#pd19417826c)" d="M 812.599694 179.918129 
L 980.319791 179.918129 
" style="fill:none;stroke:#737373;stroke-linecap:square;stroke-width:0.75;"/>
   </g>
   <g id="line2d_60">
    <path clip-path="url(#pd19417826c)" d="M 779.521795 230.481792 
L 1013.397691 230.481792 
" style="fill:none;stroke:#737373;stroke-linecap:square;stroke-width:0.75;"/>
   </g>
   <g id="line2d_61">
    <path clip-path="url(#pd19417826c)" d="M 845.603766 378.801871 
L 947.315719 378.801871 
" style="fill:none;stroke:#737373;stroke-linecap:square;stroke-width:0.75;"/>
   </g>
   <g id="line2d_62">
    <path clip-path="url(#pd19417826c)" d="M 779.521795 227.110882 
L 1013.397691 227.110882 
" style="fill:none;stroke:#737373;stroke-linecap:square;stroke-width:0.75;"/>
   </g>
   <g id="line2d_63">
    <path clip-path="url(#pd19417826c)" d="M 748.75386 213.627238 
L 1044.165625 213.627238 
" style="fill:none;stroke:#ff0000;stroke-linecap:square;stroke-width:1.5;"/>
   </g>
   <g id="line2d_64">
    <path clip-path="url(#pd19417826c)" d="M 896.459743 305.484559 
L 896.459743 378.801871 
" style="fill:none;stroke:#0000ff;stroke-linecap:square;stroke-width:2;"/>
   </g>
   <g id="line2d_65">
    <path clip-path="url(#pd19417826c)" d="M 896.459743 227.953609 
L 896.459743 179.918129 
" style="fill:none;stroke:#0000ff;stroke-linecap:square;stroke-width:2;"/>
   </g>
   <g id="line2d_66">
    <path clip-path="url(#pd19417826c)" d="M 885.381801 378.801871 
L 907.537684 378.801871 
" style="fill:none;stroke:#000000;stroke-linecap:square;"/>
   </g>
   <g id="line2d_67">
    <path clip-path="url(#pd19417826c)" d="M 885.381801 179.918129 
L 907.537684 179.918129 
" style="fill:none;stroke:#000000;stroke-linecap:square;"/>
   </g>
   <g id="line2d_68"/>
   <g id="patch_15">
    <path clip-path="url(#pd19417826c)" d="M 874.30386 305.484559 
L 918.615625 305.484559 
L 918.615625 227.953609 
L 874.30386 227.953609 
L 874.30386 305.484559 
z
" style="fill:#0000ff;stroke:#0000ff;stroke-linejoin:miter;"/>
   </g>
   <g id="line2d_69">
    <path clip-path="url(#pd19417826c)" d="M 874.30386 238.90907 
L 918.615625 238.90907 
" style="fill:none;stroke:#ffffff;stroke-linecap:square;stroke-width:2;"/>
   </g>
   <g id="patch_16">
    <path d="M 748.75386 501.12 
L 748.75386 57.6 
" style="fill:none;stroke:#000000;stroke-linecap:square;stroke-linejoin:miter;stroke-width:0.8;"/>
   </g>
   <g id="patch_17">
    <path d="M 1044.165625 501.12 
L 1044.165625 57.6 
" style="fill:none;stroke:#000000;stroke-linecap:square;stroke-linejoin:miter;stroke-width:0.8;"/>
   </g>
   <g id="patch_18">
    <path d="M 748.75386 501.12 
L 1044.165625 501.12 
" style="fill:none;stroke:#000000;stroke-linecap:square;stroke-linejoin:miter;stroke-width:0.8;"/>
   </g>
   <g id="patch_19">
    <path d="M 748.75386 57.6 
L 1044.165625 57.6 
" style="fill:none;stroke:#000000;stroke-linecap:square;stroke-linejoin:miter;stroke-width:0.8;"/>
   </g>
  </g>
  <g id="text_34">
   <!-- Efficienza delle visualizzazioni per le 3 task -->
   <g transform="translate(352.701875 12.1575)scale(0.16 -0.16)">
    <defs>
     <path d="M 628 4666 
L 3578 4666 
L 3578 4134 
L 1259 4134 
L 1259 2753 
L 3481 2753 
L 3481 2222 
L 1259 2222 
L 1259 531 
L 3634 531 
L 3634 0 
L 628 0 
L 628 4666 
z
" id="DejaVuSans-45" transform="scale(0.015625)"/>
     <path d="M 2375 4863 
L 2375 4384 
L 1825 4384 
Q 1516 4384 1395 4259 
Q 1275 4134 1275 3809 
L 1275 3500 
L 2222 3500 
L 2222 3053 
L 1275 3053 
L 1275 0 
L 697 0 
L 697 3053 
L 147 3053 
L 147 3500 
L 697 3500 
L 697 3744 
Q 697 4328 969 4595 
Q 1241 4863 1831 4863 
L 2375 4863 
z
" id="DejaVuSans-66" transform="scale(0.015625)"/>
     <path d="M 353 3500 
L 3084 3500 
L 3084 2975 
L 922 459 
L 3084 459 
L 3084 0 
L 275 0 
L 275 525 
L 2438 3041 
L 353 3041 
L 353 3500 
z
" id="DejaVuSans-7a" transform="scale(0.015625)"/>
     <path d="M 603 4863 
L 1178 4863 
L 1178 0 
L 603 0 
L 603 4863 
z
" id="DejaVuSans-6c" transform="scale(0.015625)"/>
     <path d="M 191 3500 
L 800 3500 
L 1894 563 
L 2988 3500 
L 3597 3500 
L 2284 0 
L 1503 0 
L 191 3500 
z
" id="DejaVuSans-76" transform="scale(0.015625)"/>
     <path d="M 544 1381 
L 544 3500 
L 1119 3500 
L 1119 1403 
Q 1119 906 1312 657 
Q 1506 409 1894 409 
Q 2359 409 2629 706 
Q 2900 1003 2900 1516 
L 2900 3500 
L 3475 3500 
L 3475 0 
L 2900 0 
L 2900 538 
Q 2691 219 2414 64 
Q 2138 -91 1772 -91 
Q 1169 -91 856 284 
Q 544 659 544 1381 
z
M 1991 3584 
L 1991 3584 
z
" id="DejaVuSans-75" transform="scale(0.015625)"/>
     <path d="M 2631 2963 
Q 2534 3019 2420 3045 
Q 2306 3072 2169 3072 
Q 1681 3072 1420 2755 
Q 1159 2438 1159 1844 
L 1159 0 
L 581 0 
L 581 3500 
L 1159 3500 
L 1159 2956 
Q 1341 3275 1631 3429 
Q 1922 3584 2338 3584 
Q 2397 3584 2469 3576 
Q 2541 3569 2628 3553 
L 2631 2963 
z
" id="DejaVuSans-72" transform="scale(0.015625)"/>
     <path d="M 1172 4494 
L 1172 3500 
L 2356 3500 
L 2356 3053 
L 1172 3053 
L 1172 1153 
Q 1172 725 1289 603 
Q 1406 481 1766 481 
L 2356 481 
L 2356 0 
L 1766 0 
Q 1100 0 847 248 
Q 594 497 594 1153 
L 594 3053 
L 172 3053 
L 172 3500 
L 594 3500 
L 594 4494 
L 1172 4494 
z
" id="DejaVuSans-74" transform="scale(0.015625)"/>
    </defs>
    <use xlink:href="#DejaVuSans-45"/>
    <use x="63.183594" xlink:href="#DejaVuSans-66"/>
    <use x="98.388672" xlink:href="#DejaVuSans-66"/>
    <use x="133.59375" xlink:href="#DejaVuSans-69"/>
    <use x="161.376953" xlink:href="#DejaVuSans-63"/>
    <use x="216.357422" xlink:href="#DejaVuSans-69"/>
    <use x="244.140625" xlink:href="#DejaVuSans-65"/>
    <use x="305.664062" xlink:href="#DejaVuSans-6e"/>
    <use x="369.042969" xlink:href="#DejaVuSans-7a"/>
    <use x="421.533203" xlink:href="#DejaVuSans-61"/>
    <use x="482.8125" xlink:href="#DejaVuSans-20"/>
    <use x="514.599609" xlink:href="#DejaVuSans-64"/>
    <use x="578.076172" xlink:href="#DejaVuSans-65"/>
    <use x="639.599609" xlink:href="#DejaVuSans-6c"/>
    <use x="667.382812" xlink:href="#DejaVuSans-6c"/>
    <use x="695.166016" xlink:href="#DejaVuSans-65"/>
    <use x="756.689453" xlink:href="#DejaVuSans-20"/>
    <use x="788.476562" xlink:href="#DejaVuSans-76"/>
    <use x="847.65625" xlink:href="#DejaVuSans-69"/>
    <use x="875.439453" xlink:href="#DejaVuSans-73"/>
    <use x="927.539062" xlink:href="#DejaVuSans-75"/>
    <use x="990.917969" xlink:href="#DejaVuSans-61"/>
    <use x="1052.197266" xlink:href="#DejaVuSans-6c"/>
    <use x="1079.980469" xlink:href="#DejaVuSans-69"/>
    <use x="1107.763672" xlink:href="#DejaVuSans-7a"/>
    <use x="1160.253906" xlink:href="#DejaVuSans-7a"/>
    <use x="1212.744141" xlink:href="#DejaVuSans-61"/>
    <use x="1274.023438" xlink:href="#DejaVuSans-7a"/>
    <use x="1326.513672" xlink:href="#DejaVuSans-69"/>
    <use x="1354.296875" xlink:href="#DejaVuSans-6f"/>
    <use x="1415.478516" xlink:href="#DejaVuSans-6e"/>
    <use x="1478.857422" xlink:href="#DejaVuSans-69"/>
    <use x="1506.640625" xlink:href="#DejaVuSans-20"/>
    <use x="1538.427734" xlink:href="#DejaVuSans-70"/>
    <use x="1601.904297" xlink:href="#DejaVuSans-65"/>
    <use x="1663.427734" xlink:href="#DejaVuSans-72"/>
    <use x="1704.541016" xlink:href="#DejaVuSans-20"/>
    <use x="1736.328125" xlink:href="#DejaVuSans-6c"/>
    <use x="1764.111328" xlink:href="#DejaVuSans-65"/>
    <use x="1825.634766" xlink:href="#DejaVuSans-20"/>
    <use x="1857.421875" xlink:href="#DejaVuSans-33"/>
    <use x="1921.044922" xlink:href="#DejaVuSans-20"/>
    <use x="1952.832031" xlink:href="#DejaVuSans-74"/>
    <use x="1992.041016" xlink:href="#DejaVuSans-61"/>
    <use x="2053.320312" xlink:href="#DejaVuSans-73"/>
    <use x="2105.419922" xlink:href="#DejaVuSans-6b"/>
   </g>
  </g>
 </g>
 <defs>
  <clipPath id="p7e56a0f425">
   <rect height="443.52" width="295.411765" x="39.765625" y="57.6"/>
  </clipPath>
  <clipPath id="pe68a2c3c14">
   <rect height="443.52" width="295.411765" x="394.259743" y="57.6"/>
  </clipPath>
  <clipPath id="pd19417826c">
   <rect height="443.52" width="295.411765" x="748.75386" y="57.6"/>
  </clipPath>
 </defs>
</svg>
