<?xml version="1.0" encoding="utf-8" standalone="no"?>
<!DOCTYPE svg PUBLIC "-//W3C//DTD SVG 1.1//EN"
  "http://www.w3.org/Graphics/SVG/1.1/DTD/svg11.dtd">
<svg height="815.4pt" version="1.1" viewBox="0 0 815.4 815.4" width="815.4pt" xmlns="http://www.w3.org/2000/svg" xmlns:xlink="http://www.w3.org/1999/xlink">
 <metadata>
  <rdf:RDF xmlns:cc="http://creativecommons.org/ns#" xmlns:dc="http://purl.org/dc/elements/1.1/" xmlns:rdf="http://www.w3.org/1999/02/22-rdf-syntax-ns#">
   <cc:Work>
    <dc:type rdf:resource="http://purl.org/dc/dcmitype/StillImage"/>
    <dc:date>2022-01-08T20:51:24.906510</dc:date>
    <dc:format>image/svg+xml</dc:format>
    <dc:creator>
     <cc:Agent>
      <dc:title>Matplotlib v3.4.3, https://matplotlib.org/</dc:title>
     </cc:Agent>
    </dc:creator>
   </cc:Work>
  </rdf:RDF>
 </metadata>
 <defs>
  <style type="text/css">*{stroke-linecap:butt;stroke-linejoin:round;}</style>
 </defs>
 <g id="figure_1">
  <g id="patch_1">
   <path d="M 0 815.4 
L 815.4 815.4 
L 815.4 0 
L 0 0 
z
" style="fill:#ffffff;"/>
  </g>
  <g id="axes_1">
   <g id="patch_2">
    <path d="M 815.4 407.7 
C 815.4 354.161327 804.854049 301.143249 784.365685 251.679965 
C 763.877322 202.21668 733.844994 157.270124 695.987435 119.412565 
C 658.129876 81.555006 613.18332 51.522678 563.720035 31.034315 
C 514.256751 10.545951 461.238673 0 407.7 0 
C 354.161327 0 301.143249 10.545951 251.679965 31.034315 
C 202.21668 51.522678 157.270124 81.555006 119.412565 119.412565 
C 81.555006 157.270124 51.522678 202.21668 31.034315 251.679965 
C 10.545951 301.143249 0 354.161327 0 407.7 
C 0 461.238673 10.545951 514.256751 31.034315 563.720035 
C 51.522678 613.18332 81.555006 658.129876 119.412565 695.987435 
C 157.270124 733.844994 202.21668 763.877322 251.679965 784.365685 
C 301.143249 804.854049 354.161327 815.4 407.7 815.4 
C 461.238673 815.4 514.256751 804.854049 563.720035 784.365685 
C 613.18332 763.877322 658.129876 733.844994 695.987435 695.987435 
C 733.844994 658.129876 763.877322 613.18332 784.365685 563.720035 
C 804.854049 514.256751 815.4 461.238673 815.4 407.7 
M 407.7 407.7 
C 407.7 407.7 407.7 407.7 407.7 407.7 
C 407.7 407.7 407.7 407.7 407.7 407.7 
C 407.7 407.7 407.7 407.7 407.7 407.7 
C 407.7 407.7 407.7 407.7 407.7 407.7 
C 407.7 407.7 407.7 407.7 407.7 407.7 
C 407.7 407.7 407.7 407.7 407.7 407.7 
C 407.7 407.7 407.7 407.7 407.7 407.7 
C 407.7 407.7 407.7 407.7 407.7 407.7 
C 407.7 407.7 407.7 407.7 407.7 407.7 
C 407.7 407.7 407.7 407.7 407.7 407.7 
C 407.7 407.7 407.7 407.7 407.7 407.7 
C 407.7 407.7 407.7 407.7 407.7 407.7 
C 407.7 407.7 407.7 407.7 407.7 407.7 
C 407.7 407.7 407.7 407.7 407.7 407.7 
C 407.7 407.7 407.7 407.7 407.7 407.7 
C 407.7 407.7 407.7 407.7 407.7 407.7 
M 815.4 407.7 
z
" style="fill:#ffffff;"/>
   </g>
   <g id="matplotlib.axis_1"/>
   <g id="matplotlib.axis_2">
    <g id="ytick_1"/>
    <g id="ytick_2"/>
    <g id="ytick_3"/>
    <g id="ytick_4"/>
    <g id="ytick_5"/>
    <g id="ytick_6"/>
    <g id="ytick_7"/>
    <g id="ytick_8"/>
   </g>
   <g id="PathCollection_1">
    <defs>
     <path d="M 0 3 
C 0.795609 3 1.55874 2.683901 2.12132 2.12132 
C 2.683901 1.55874 3 0.795609 3 -0 
C 3 -0.795609 2.683901 -1.55874 2.12132 -2.12132 
C 1.55874 -2.683901 0.795609 -3 0 -3 
C -0.795609 -3 -1.55874 -2.683901 -2.12132 -2.12132 
C -2.683901 -1.55874 -3 -0.795609 -3 0 
C -3 0.795609 -2.683901 1.55874 -2.12132 2.12132 
C -1.55874 2.683901 -0.795609 3 0 3 
z
" id="C0_0_8f8d594545"/>
    </defs>
    <g clip-path="url(#p29ba91e2ff)">
     <use style="fill:#808080;stroke:#808080;" x="407.7" xlink:href="#C0_0_8f8d594545" y="115.834228"/>
    </g>
    <g clip-path="url(#p29ba91e2ff)">
     <use style="fill:#808080;stroke:#808080;" x="461.330195" xlink:href="#C0_0_8f8d594545" y="120.803798"/>
    </g>
    <g clip-path="url(#p29ba91e2ff)">
     <use style="fill:#808080;stroke:#808080;" x="513.134078" xlink:href="#C0_0_8f8d594545" y="135.543273"/>
    </g>
    <g clip-path="url(#p29ba91e2ff)">
     <use style="fill:#808080;stroke:#808080;" x="561.34753" xlink:href="#C0_0_8f8d594545" y="159.550719"/>
    </g>
    <g clip-path="url(#p29ba91e2ff)">
     <use style="fill:#808080;stroke:#808080;" x="604.328699" xlink:href="#C0_0_8f8d594545" y="192.008592"/>
    </g>
    <g clip-path="url(#p29ba91e2ff)">
     <use style="fill:#808080;stroke:#808080;" x="640.613914" xlink:href="#C0_0_8f8d594545" y="231.811577"/>
    </g>
    <g clip-path="url(#p29ba91e2ff)">
     <use style="fill:#808080;stroke:#808080;" x="668.967525" xlink:href="#C0_0_8f8d594545" y="277.604231"/>
    </g>
    <g clip-path="url(#p29ba91e2ff)">
     <use style="fill:#808080;stroke:#808080;" x="688.423984" xlink:href="#C0_0_8f8d594545" y="327.82714"/>
    </g>
    <g clip-path="url(#p29ba91e2ff)">
     <use style="fill:#808080;stroke:#808080;" x="698.320724" xlink:href="#C0_0_8f8d594545" y="380.770024"/>
    </g>
    <g clip-path="url(#p29ba91e2ff)">
     <use style="fill:#808080;stroke:#808080;" x="698.320724" xlink:href="#C0_0_8f8d594545" y="434.629976"/>
    </g>
    <g clip-path="url(#p29ba91e2ff)">
     <use style="fill:#808080;stroke:#808080;" x="688.423984" xlink:href="#C0_0_8f8d594545" y="487.57286"/>
    </g>
    <g clip-path="url(#p29ba91e2ff)">
     <use style="fill:#808080;stroke:#808080;" x="668.967525" xlink:href="#C0_0_8f8d594545" y="537.795769"/>
    </g>
    <g clip-path="url(#p29ba91e2ff)">
     <use style="fill:#808080;stroke:#808080;" x="640.613914" xlink:href="#C0_0_8f8d594545" y="583.588423"/>
    </g>
    <g clip-path="url(#p29ba91e2ff)">
     <use style="fill:#808080;stroke:#808080;" x="604.328699" xlink:href="#C0_0_8f8d594545" y="623.391408"/>
    </g>
    <g clip-path="url(#p29ba91e2ff)">
     <use style="fill:#808080;stroke:#808080;" x="561.34753" xlink:href="#C0_0_8f8d594545" y="655.849281"/>
    </g>
    <g clip-path="url(#p29ba91e2ff)">
     <use style="fill:#808080;stroke:#808080;" x="513.134078" xlink:href="#C0_0_8f8d594545" y="679.856727"/>
    </g>
    <g clip-path="url(#p29ba91e2ff)">
     <use style="fill:#808080;stroke:#808080;" x="461.330195" xlink:href="#C0_0_8f8d594545" y="694.596202"/>
    </g>
    <g clip-path="url(#p29ba91e2ff)">
     <use style="fill:#808080;stroke:#808080;" x="407.7" xlink:href="#C0_0_8f8d594545" y="699.565772"/>
    </g>
    <g clip-path="url(#p29ba91e2ff)">
     <use style="fill:#808080;stroke:#808080;" x="350.717918" xlink:href="#C0_0_8f8d594545" y="712.527215"/>
    </g>
    <g clip-path="url(#p29ba91e2ff)">
     <use style="fill:#808080;stroke:#808080;" x="295.676292" xlink:href="#C0_0_8f8d594545" y="696.866522"/>
    </g>
    <g clip-path="url(#p29ba91e2ff)">
     <use style="fill:#808080;stroke:#808080;" x="244.4495" xlink:href="#C0_0_8f8d594545" y="671.358611"/>
    </g>
    <g clip-path="url(#p29ba91e2ff)">
     <use style="fill:#808080;stroke:#808080;" x="198.782007" xlink:href="#C0_0_8f8d594545" y="636.872121"/>
    </g>
    <g clip-path="url(#p29ba91e2ff)">
     <use style="fill:#808080;stroke:#808080;" x="160.228966" xlink:href="#C0_0_8f8d594545" y="594.58145"/>
    </g>
    <g clip-path="url(#p29ba91e2ff)">
     <use style="fill:#808080;stroke:#808080;" x="130.103255" xlink:href="#C0_0_8f8d594545" y="545.926755"/>
    </g>
    <g clip-path="url(#p29ba91e2ff)">
     <use style="fill:#808080;stroke:#808080;" x="91.885518" xlink:href="#C0_0_8f8d594545" y="497.556967"/>
    </g>
    <g clip-path="url(#p29ba91e2ff)">
     <use style="fill:#da70d6;stroke:#da70d6;" x="80.751686" xlink:href="#C0_0_8f8d594545" y="437.996223"/>
    </g>
    <g clip-path="url(#p29ba91e2ff)">
     <use style="fill:#808080;stroke:#808080;" x="80.751686" xlink:href="#C0_0_8f8d594545" y="377.403777"/>
    </g>
    <g clip-path="url(#p29ba91e2ff)">
     <use style="fill:#808080;stroke:#808080;" x="91.885518" xlink:href="#C0_0_8f8d594545" y="317.843033"/>
    </g>
    <g clip-path="url(#p29ba91e2ff)">
     <use style="fill:#808080;stroke:#808080;" x="113.774034" xlink:href="#C0_0_8f8d594545" y="261.34226"/>
    </g>
    <g clip-path="url(#p29ba91e2ff)">
     <use style="fill:#ff8c00;stroke:#ff8c00;" x="131.114727" xlink:href="#C0_0_8f8d594545" y="198.832497"/>
    </g>
    <g clip-path="url(#p29ba91e2ff)">
     <use style="fill:#0000cd;stroke:#0000cd;" x="174.20342" xlink:href="#C0_0_8f8d594545" y="151.566453"/>
    </g>
    <g clip-path="url(#p29ba91e2ff)">
     <use style="fill:#32cd32;stroke:#32cd32;" x="215.640588" xlink:href="#C0_0_8f8d594545" y="97.513399"/>
    </g>
    <g clip-path="url(#p29ba91e2ff)">
     <use style="fill:#ff0000;stroke:#ff0000;" x="262.728143" xlink:href="#C0_0_8f8d594545" y="33.4845"/>
    </g>
    <g clip-path="url(#p29ba91e2ff)">
     <use style="fill:#40e0d0;stroke:#40e0d0;" x="333.958482" xlink:href="#C0_0_8f8d594545" y="13.217722"/>
    </g>
   </g>
   <g id="LineCollection_1">
    <path clip-path="url(#p29ba91e2ff)" d="M 407.7 134.075839 
L 407.7 115.834228 
" style="fill:none;stroke:#808080;stroke-width:2;"/>
    <path clip-path="url(#p29ba91e2ff)" d="M 457.978308 138.73481 
L 461.330195 120.803798 
" style="fill:none;stroke:#808080;stroke-width:2;"/>
    <path clip-path="url(#p29ba91e2ff)" d="M 506.544448 152.553069 
L 513.134078 135.543273 
" style="fill:none;stroke:#808080;stroke-width:2;"/>
    <path clip-path="url(#p29ba91e2ff)" d="M 551.744559 175.06005 
L 561.34753 159.550719 
" style="fill:none;stroke:#808080;stroke-width:2;"/>
    <path clip-path="url(#p29ba91e2ff)" d="M 592.039405 205.489305 
L 604.328699 192.008592 
" style="fill:none;stroke:#808080;stroke-width:2;"/>
    <path clip-path="url(#p29ba91e2ff)" d="M 626.056794 242.804603 
L 640.613914 231.811577 
" style="fill:none;stroke:#808080;stroke-width:2;"/>
    <path clip-path="url(#p29ba91e2ff)" d="M 652.638305 285.735216 
L 668.967525 277.604231 
" style="fill:none;stroke:#808080;stroke-width:2;"/>
    <path clip-path="url(#p29ba91e2ff)" d="M 670.878735 332.819194 
L 688.423984 327.82714 
" style="fill:none;stroke:#808080;stroke-width:2;"/>
    <path clip-path="url(#p29ba91e2ff)" d="M 680.156929 382.453148 
L 698.320724 380.770024 
" style="fill:none;stroke:#808080;stroke-width:2;"/>
    <path clip-path="url(#p29ba91e2ff)" d="M 680.156929 432.946852 
L 698.320724 434.629976 
" style="fill:none;stroke:#808080;stroke-width:2;"/>
    <path clip-path="url(#p29ba91e2ff)" d="M 670.878735 482.580806 
L 688.423984 487.57286 
" style="fill:none;stroke:#808080;stroke-width:2;"/>
    <path clip-path="url(#p29ba91e2ff)" d="M 652.638305 529.664784 
L 668.967525 537.795769 
" style="fill:none;stroke:#808080;stroke-width:2;"/>
    <path clip-path="url(#p29ba91e2ff)" d="M 626.056794 572.595397 
L 640.613914 583.588423 
" style="fill:none;stroke:#808080;stroke-width:2;"/>
    <path clip-path="url(#p29ba91e2ff)" d="M 592.039405 609.910695 
L 604.328699 623.391408 
" style="fill:none;stroke:#808080;stroke-width:2;"/>
    <path clip-path="url(#p29ba91e2ff)" d="M 551.744559 640.33995 
L 561.34753 655.849281 
" style="fill:none;stroke:#808080;stroke-width:2;"/>
    <path clip-path="url(#p29ba91e2ff)" d="M 506.544448 662.846931 
L 513.134078 679.856727 
" style="fill:none;stroke:#808080;stroke-width:2;"/>
    <path clip-path="url(#p29ba91e2ff)" d="M 457.978308 676.66519 
L 461.330195 694.596202 
" style="fill:none;stroke:#808080;stroke-width:2;"/>
    <path clip-path="url(#p29ba91e2ff)" d="M 407.7 681.324161 
L 407.7 699.565772 
" style="fill:none;stroke:#808080;stroke-width:2;"/>
    <path clip-path="url(#p29ba91e2ff)" d="M 357.421692 676.66519 
L 350.717918 712.527215 
" style="fill:none;stroke:#808080;stroke-width:2;"/>
    <path clip-path="url(#p29ba91e2ff)" d="M 308.855552 662.846931 
L 295.676292 696.866522 
" style="fill:none;stroke:#808080;stroke-width:2;"/>
    <path clip-path="url(#p29ba91e2ff)" d="M 263.655441 640.33995 
L 244.4495 671.358611 
" style="fill:none;stroke:#808080;stroke-width:2;"/>
    <path clip-path="url(#p29ba91e2ff)" d="M 223.360595 609.910695 
L 198.782007 636.872121 
" style="fill:none;stroke:#808080;stroke-width:2;"/>
    <path clip-path="url(#p29ba91e2ff)" d="M 189.343206 572.595397 
L 160.228966 594.58145 
" style="fill:none;stroke:#808080;stroke-width:2;"/>
    <path clip-path="url(#p29ba91e2ff)" d="M 162.761695 529.664784 
L 130.103255 545.926755 
" style="fill:none;stroke:#808080;stroke-width:2;"/>
    <path clip-path="url(#p29ba91e2ff)" d="M 144.521265 482.580806 
L 91.885518 497.556967 
" style="fill:none;stroke:#808080;stroke-width:2;"/>
    <path clip-path="url(#p29ba91e2ff)" d="M 135.243071 432.946852 
L 80.751686 437.996223 
" style="fill:none;stroke:#da70d6;stroke-width:2;"/>
    <path clip-path="url(#p29ba91e2ff)" d="M 135.243071 382.453148 
L 80.751686 377.403777 
" style="fill:none;stroke:#808080;stroke-width:2;"/>
    <path clip-path="url(#p29ba91e2ff)" d="M 144.521265 332.819194 
L 91.885518 317.843033 
" style="fill:none;stroke:#808080;stroke-width:2;"/>
    <path clip-path="url(#p29ba91e2ff)" d="M 162.761695 285.735216 
L 113.774034 261.34226 
" style="fill:none;stroke:#808080;stroke-width:2;"/>
    <path clip-path="url(#p29ba91e2ff)" d="M 189.343206 242.804603 
L 131.114727 198.832497 
" style="fill:none;stroke:#ff8c00;stroke-width:2;"/>
    <path clip-path="url(#p29ba91e2ff)" d="M 223.360595 205.489305 
L 174.20342 151.566453 
" style="fill:none;stroke:#0000cd;stroke-width:2;"/>
    <path clip-path="url(#p29ba91e2ff)" d="M 263.655441 175.06005 
L 215.640588 97.513399 
" style="fill:none;stroke:#32cd32;stroke-width:2;"/>
    <path clip-path="url(#p29ba91e2ff)" d="M 308.855552 152.553069 
L 262.728143 33.4845 
" style="fill:none;stroke:#ff0000;stroke-width:2;"/>
    <path clip-path="url(#p29ba91e2ff)" d="M 357.421692 138.73481 
L 333.958482 13.217722 
" style="fill:none;stroke:#40e0d0;stroke-width:2;"/>
   </g>
   <g id="line2d_1">
    <path clip-path="url(#p29ba91e2ff)" d="M 407.7 134.075839 
L 416.337918 134.212216 
L 424.967225 134.621212 
L 433.579321 135.302419 
L 442.165619 136.255157 
L 450.717561 137.478478 
L 459.226622 138.971161 
L 467.68432 140.731719 
L 476.082225 142.758397 
L 484.411964 145.049175 
L 492.665236 147.601768 
L 500.833812 150.413633 
L 508.909551 153.481967 
L 516.884402 156.803711 
L 524.750415 160.375553 
L 532.49975 164.193934 
L 540.124682 168.255048 
L 547.61761 172.554845 
L 554.971065 177.08904 
L 562.177717 181.853113 
L 569.230382 186.842315 
L 576.12203 192.051672 
L 582.845792 197.475993 
L 589.394964 203.10987 
L 595.763019 208.947686 
L 601.943609 214.983623 
L 607.930572 221.211664 
L 613.717942 227.625601 
L 619.299948 234.21904 
L 624.671026 240.985408 
L 629.825824 247.917961 
L 634.759201 255.009788 
L 639.466241 262.25382 
L 643.942251 269.642836 
L 648.18277 277.169471 
L 652.18357 284.826221 
L 655.940664 292.605454 
L 659.450306 300.499416 
L 662.708997 308.500238 
L 665.713491 316.599945 
L 668.460791 324.790462 
L 670.948159 333.063625 
L 673.173115 341.411187 
L 675.133442 349.824827 
L 676.827186 358.296159 
L 678.252657 366.816737 
L 679.408436 375.378069 
L 680.29337 383.97162 
L 680.906577 392.588824 
L 681.247446 401.221091 
L 681.315637 409.859816 
L 681.111082 418.496388 
L 680.633984 427.122199 
L 679.88482 435.728648 
L 678.864337 444.307159 
L 677.57355 452.849178 
L 676.013748 461.346192 
L 674.186486 469.78973 
L 672.093583 478.171376 
L 669.737127 486.482774 
L 667.119467 494.71564 
L 664.243212 502.861767 
L 661.111229 510.913034 
L 657.726641 518.861417 
L 654.09282 526.698991 
L 650.213389 534.417945 
L 646.092216 542.010583 
L 641.733409 549.469338 
L 637.141312 556.786774 
L 632.320502 563.955597 
L 627.275786 570.968661 
L 622.012193 577.818975 
L 616.534968 584.499711 
L 610.849572 591.004209 
L 604.961672 597.325986 
L 598.877137 603.458739 
L 592.602033 609.396356 
L 586.142614 615.132917 
L 579.50532 620.662705 
L 572.696767 625.980206 
L 565.723741 631.080122 
L 558.593194 635.957367 
L 551.312233 640.60708 
L 543.888116 645.024627 
L 536.328244 649.205603 
L 528.640153 653.145841 
L 520.831506 656.841414 
L 512.910087 660.288636 
L 504.883792 663.484073 
L 496.760622 666.424539 
L 488.548675 669.107103 
L 480.256136 671.52909 
L 471.891271 673.688087 
L 463.462419 675.581941 
L 454.977983 677.208764 
L 446.446418 678.566935 
L 437.87623 679.6551 
L 429.275962 680.472175 
L 420.654186 681.017344 
L 412.019497 681.290065 
L 403.380503 681.290065 
L 394.745814 681.017344 
L 386.124038 680.472175 
L 377.52377 679.6551 
L 368.953582 678.566935 
L 360.422017 677.208764 
L 351.937581 675.581941 
L 343.508729 673.688087 
L 335.143864 671.52909 
L 326.851325 669.107103 
L 318.639378 666.424539 
L 310.516208 663.484073 
L 302.489913 660.288636 
L 294.568494 656.841414 
L 286.759847 653.145841 
L 279.071756 649.205603 
L 271.511884 645.024627 
L 264.087767 640.60708 
L 256.806806 635.957367 
L 249.676259 631.080122 
L 242.703233 625.980206 
L 235.89468 620.662705 
L 229.257386 615.132917 
L 222.797967 609.396356 
L 216.522863 603.458739 
L 210.438328 597.325986 
L 204.550428 591.004209 
L 198.865032 584.499711 
L 193.387807 577.818975 
L 188.124214 570.968661 
L 183.079498 563.955597 
L 178.258688 556.786774 
L 173.666591 549.469338 
L 169.307784 542.010583 
L 165.186611 534.417945 
L 161.30718 526.698991 
L 157.673359 518.861417 
L 154.288771 510.913034 
L 151.156788 502.861767 
L 148.280533 494.71564 
L 145.662873 486.482774 
L 143.306417 478.171376 
L 141.213514 469.78973 
L 139.386252 461.346192 
L 137.82645 452.849178 
L 136.535663 444.307159 
L 135.51518 435.728648 
L 134.766016 427.122199 
L 134.288918 418.496388 
L 134.084363 409.859816 
L 134.152554 401.221091 
L 134.493423 392.588824 
L 135.10663 383.97162 
L 135.991564 375.378069 
L 137.147343 366.816737 
L 138.572814 358.296159 
L 140.266558 349.824827 
L 142.226885 341.411187 
L 144.451841 333.063625 
L 146.939209 324.790462 
L 149.686509 316.599945 
L 152.691003 308.500238 
L 155.949694 300.499416 
L 159.459336 292.605454 
L 163.21643 284.826221 
L 167.21723 277.169471 
L 171.457749 269.642836 
L 175.933759 262.25382 
L 180.640799 255.009788 
L 185.574176 247.917961 
L 190.728974 240.985408 
L 196.100052 234.21904 
L 201.682058 227.625601 
L 207.469428 221.211664 
L 213.456391 214.983623 
L 219.636981 208.947686 
L 226.005036 203.10987 
L 232.554208 197.475993 
L 239.27797 192.051672 
L 246.169618 186.842315 
L 253.222283 181.853113 
L 260.428935 177.08904 
L 267.78239 172.554845 
L 275.275318 168.255048 
L 282.90025 164.193934 
L 290.649585 160.375553 
L 298.515598 156.803711 
L 306.490449 153.481967 
L 314.566188 150.413633 
L 322.734764 147.601768 
L 330.988036 145.049175 
L 339.317775 142.758397 
L 347.71568 140.731719 
L 356.173378 138.971161 
L 364.682439 137.478478 
L 373.234381 136.255157 
L 381.820679 135.302419 
L 390.432775 134.621212 
L 399.062082 134.212216 
L 407.7 134.075839 
L 407.7 134.075839 
" style="fill:none;stroke:#d6d6d6;stroke-linecap:round;stroke-width:0.7;"/>
   </g>
   <g id="line2d_2">
    <path clip-path="url(#p29ba91e2ff)" d="M 407.7 115.834228 
L 416.913779 115.979697 
L 426.118374 116.415959 
L 435.304609 117.14258 
L 444.463327 118.158834 
L 453.585398 119.46371 
L 462.66173 121.055905 
L 471.683275 122.933834 
L 480.64104 125.095624 
L 489.526095 127.53912 
L 498.329585 130.261886 
L 507.042733 133.261209 
L 515.656854 136.534098 
L 524.163362 140.077291 
L 532.553776 143.887257 
L 540.819733 147.960197 
L 548.952994 152.292051 
L 556.94545 156.878501 
L 564.789136 161.714976 
L 572.476231 166.796653 
L 579.999074 172.118469 
L 587.350166 177.675117 
L 594.522178 183.461059 
L 601.507962 189.470528 
L 608.300554 195.697532 
L 614.893183 202.135865 
L 621.279277 208.779109 
L 627.452471 215.620641 
L 633.406611 222.653642 
L 639.135761 229.871102 
L 644.634212 237.265825 
L 649.896481 244.830441 
L 654.917323 252.557408 
L 659.691734 260.439025 
L 664.214954 268.467435 
L 668.482474 276.634636 
L 672.490041 284.932484 
L 676.233659 293.352711 
L 679.709597 301.886921 
L 682.91439 310.526608 
L 685.844843 319.263159 
L 688.498036 328.087866 
L 690.871323 336.991933 
L 692.962338 345.966482 
L 694.768998 355.002569 
L 696.289501 364.091186 
L 697.522332 373.223273 
L 698.466262 382.389728 
L 699.120349 391.581412 
L 699.483942 400.789163 
L 699.556679 410.003804 
L 699.338487 419.216147 
L 698.829583 428.417012 
L 698.030475 437.597225 
L 696.941959 446.747636 
L 695.56512 455.859123 
L 693.901332 464.922605 
L 691.952251 473.929045 
L 689.719822 482.869467 
L 687.206269 491.734959 
L 684.414098 500.516682 
L 681.346093 509.205884 
L 678.005311 517.793903 
L 674.395083 526.272178 
L 670.519008 534.632257 
L 666.380949 542.865808 
L 661.985031 550.964622 
L 657.335636 558.920627 
L 652.437399 566.725892 
L 647.295202 574.372636 
L 641.914172 581.853238 
L 636.299672 589.16024 
L 630.457299 596.286358 
L 624.392876 603.22449 
L 618.11245 609.967718 
L 611.622279 616.509321 
L 604.928835 622.842779 
L 598.038788 628.961778 
L 590.959008 634.860218 
L 583.696551 640.53222 
L 576.258657 645.97213 
L 568.65274 651.174525 
L 560.886382 656.134219 
L 552.967324 660.846269 
L 544.90346 665.305977 
L 536.70283 669.508897 
L 528.373606 673.450841 
L 519.924092 677.127879 
L 511.362711 680.536345 
L 502.697997 683.672842 
L 493.938586 686.534243 
L 485.093212 689.117696 
L 476.170689 691.420626 
L 467.179914 693.440737 
L 458.129848 695.176015 
L 449.029512 696.624731 
L 439.887979 697.785441 
L 430.714359 698.656987 
L 421.517798 699.2385 
L 412.307464 699.529402 
L 403.092536 699.529402 
L 393.882202 699.2385 
L 384.685641 698.656987 
L 375.512021 697.785441 
L 366.370488 696.624731 
L 357.270152 695.176015 
L 348.220086 693.440737 
L 339.229311 691.420626 
L 330.306788 689.117696 
L 321.461414 686.534243 
L 312.702003 683.672842 
L 304.037289 680.536345 
L 295.475908 677.127879 
L 287.026394 673.450841 
L 278.69717 669.508897 
L 270.49654 665.305977 
L 262.432676 660.846269 
L 254.513618 656.134219 
L 246.74726 651.174525 
L 239.141343 645.97213 
L 231.703449 640.53222 
L 224.440992 634.860218 
L 217.361212 628.961778 
L 210.471165 622.842779 
L 203.777721 616.509321 
L 197.28755 609.967718 
L 191.007124 603.22449 
L 184.942701 596.286358 
L 179.100328 589.16024 
L 173.485828 581.853238 
L 168.104798 574.372636 
L 162.962601 566.725892 
L 158.064364 558.920627 
L 153.414969 550.964622 
L 149.019051 542.865808 
L 144.880992 534.632257 
L 141.004917 526.272178 
L 137.394689 517.793903 
L 134.053907 509.205884 
L 130.985902 500.516682 
L 128.193731 491.734959 
L 125.680178 482.869467 
L 123.447749 473.929045 
L 121.498668 464.922605 
L 119.83488 455.859123 
L 118.458041 446.747636 
L 117.369525 437.597225 
L 116.570417 428.417012 
L 116.061513 419.216147 
L 115.843321 410.003804 
L 115.916058 400.789163 
L 116.279651 391.581412 
L 116.933738 382.389728 
L 117.877668 373.223273 
L 119.110499 364.091186 
L 120.631002 355.002569 
L 122.437662 345.966482 
L 124.528677 336.991933 
L 126.901964 328.087866 
L 129.555157 319.263159 
L 132.48561 310.526608 
L 135.690403 301.886921 
L 139.166341 293.352711 
L 142.909959 284.932484 
L 146.917526 276.634636 
L 151.185046 268.467435 
L 155.708266 260.439025 
L 160.482677 252.557408 
L 165.503519 244.830441 
L 170.765788 237.265825 
L 176.264239 229.871102 
L 181.993389 222.653642 
L 187.947529 215.620641 
L 194.120723 208.779109 
L 200.506817 202.135865 
L 207.099446 195.697532 
L 213.892038 189.470528 
L 220.877822 183.461059 
L 228.049834 177.675117 
L 235.400926 172.118469 
L 242.923769 166.796653 
L 250.610864 161.714976 
L 258.45455 156.878501 
L 266.447006 152.292051 
L 274.580267 147.960197 
L 282.846224 143.887257 
L 291.236638 140.077291 
L 299.743146 136.534098 
L 308.357267 133.261209 
L 317.070415 130.261886 
L 325.873905 127.53912 
L 334.75896 125.095624 
L 343.716725 122.933834 
L 352.73827 121.055905 
L 361.814602 119.46371 
L 370.936673 118.158834 
L 380.095391 117.14258 
L 389.281626 116.415959 
L 398.486221 115.979697 
L 407.7 115.834228 
L 407.7 115.834228 
" style="fill:none;stroke:#d6d6d6;stroke-linecap:round;stroke-width:0.7;"/>
   </g>
   <g id="line2d_3">
    <path clip-path="url(#p29ba91e2ff)" d="M 407.7 97.592617 
L 417.48964 97.747178 
L 427.269522 98.210707 
L 437.029897 98.982741 
L 446.761034 100.062512 
L 456.453235 101.448942 
L 466.096838 103.140649 
L 475.682229 105.135949 
L 485.199855 107.43285 
L 494.640226 110.029065 
L 503.993934 112.922004 
L 513.251654 116.108784 
L 522.404158 119.586229 
L 531.442322 123.350872 
L 540.357137 127.398961 
L 549.139716 131.726459 
L 557.781306 136.329054 
L 566.273291 141.202157 
L 574.607207 146.340912 
L 582.774746 151.740194 
L 590.767766 157.394623 
L 598.578301 163.298562 
L 606.198564 169.446126 
L 613.62096 175.831186 
L 620.838089 182.447378 
L 627.842757 189.288106 
L 634.627982 196.346553 
L 641.187001 203.615681 
L 647.513274 211.088245 
L 653.600497 218.756796 
L 659.4426 226.613689 
L 665.033761 234.651093 
L 670.368406 242.860996 
L 675.441218 251.235214 
L 680.247139 259.7654 
L 684.781379 268.44305 
L 689.039419 277.259515 
L 693.017013 286.206005 
L 696.710197 295.273603 
L 700.11529 304.453271 
L 703.228896 313.735857 
L 706.047913 323.112108 
L 708.56953 332.572679 
L 710.791234 342.108138 
L 712.71081 351.70898 
L 714.326345 361.365635 
L 715.636228 371.068478 
L 716.639153 380.807836 
L 717.334121 390.574 
L 717.720439 400.357236 
L 717.797722 410.147791 
L 717.565892 419.935907 
L 717.025182 429.711825 
L 716.17613 439.465802 
L 715.019582 449.188113 
L 713.556691 458.869069 
L 711.788915 468.499017 
L 709.718017 478.068361 
L 707.346061 487.567559 
L 704.675411 496.987144 
L 701.708729 506.317725 
L 698.448974 515.550002 
L 694.899393 524.674772 
L 691.063526 533.682939 
L 686.945196 542.565523 
L 682.548508 551.313671 
L 677.877845 559.918661 
L 672.937863 568.371916 
L 667.733486 576.66501 
L 662.269903 584.789676 
L 656.552558 592.737815 
L 650.587152 600.501505 
L 644.37963 608.073006 
L 637.936181 615.44477 
L 631.263228 622.60945 
L 624.367422 629.559904 
L 617.255637 636.289203 
L 609.934963 642.790639 
L 602.412696 649.057732 
L 594.696335 655.084234 
L 586.793573 660.864138 
L 578.712286 666.391683 
L 570.46053 671.661358 
L 562.046532 676.667911 
L 553.478677 681.40635 
L 544.765506 685.871953 
L 535.915706 690.060269 
L 526.938098 693.967121 
L 517.841631 697.588616 
L 508.635372 700.921144 
L 499.328498 703.961383 
L 489.930287 706.706302 
L 480.450107 709.153165 
L 470.897409 711.299533 
L 461.281714 713.143266 
L 451.612607 714.682527 
L 441.899727 715.915781 
L 432.152756 716.841798 
L 422.381411 717.459657 
L 412.59543 717.76874 
L 402.80457 717.76874 
L 393.018589 717.459657 
L 383.247244 716.841798 
L 373.500273 715.915781 
L 363.787393 714.682527 
L 354.118286 713.143266 
L 344.502591 711.299533 
L 334.949893 709.153165 
L 325.469713 706.706302 
L 316.071502 703.961383 
L 306.764628 700.921144 
L 297.558369 697.588616 
L 288.461902 693.967121 
L 279.484294 690.060269 
L 270.634494 685.871953 
L 261.921323 681.40635 
L 253.353468 676.667911 
L 244.93947 671.661358 
L 236.687714 666.391683 
L 228.606427 660.864138 
L 220.703665 655.084234 
L 212.987304 649.057732 
L 205.465037 642.790639 
L 198.144363 636.289203 
L 191.032578 629.559904 
L 184.136772 622.60945 
L 177.463819 615.44477 
L 171.02037 608.073006 
L 164.812848 600.501505 
L 158.847442 592.737815 
L 153.130097 584.789676 
L 147.666514 576.66501 
L 142.462137 568.371916 
L 137.522155 559.918661 
L 132.851492 551.313671 
L 128.454804 542.565523 
L 124.336474 533.682939 
L 120.500607 524.674772 
L 116.951026 515.550002 
L 113.691271 506.317725 
L 110.724589 496.987144 
L 108.053939 487.567559 
L 105.681983 478.068361 
L 103.611085 468.499017 
L 101.843309 458.869069 
L 100.380418 449.188113 
L 99.22387 439.465802 
L 98.374818 429.711825 
L 97.834108 419.935907 
L 97.602278 410.147791 
L 97.679561 400.357236 
L 98.065879 390.574 
L 98.760847 380.807836 
L 99.763772 371.068478 
L 101.073655 361.365635 
L 102.68919 351.70898 
L 104.608766 342.108138 
L 106.83047 332.572679 
L 109.352087 323.112108 
L 112.171104 313.735857 
L 115.28471 304.453271 
L 118.689803 295.273603 
L 122.382987 286.206005 
L 126.360581 277.259515 
L 130.618621 268.44305 
L 135.152861 259.7654 
L 139.958782 251.235214 
L 145.031594 242.860996 
L 150.366239 234.651093 
L 155.9574 226.613689 
L 161.799503 218.756796 
L 167.886726 211.088245 
L 174.212999 203.615681 
L 180.772018 196.346553 
L 187.557243 189.288106 
L 194.561911 182.447378 
L 201.77904 175.831186 
L 209.201436 169.446126 
L 216.821699 163.298562 
L 224.632234 157.394623 
L 232.625254 151.740194 
L 240.792793 146.340912 
L 249.126709 141.202157 
L 257.618694 136.329054 
L 266.260284 131.726459 
L 275.042863 127.398961 
L 283.957678 123.350872 
L 292.995842 119.586229 
L 302.148346 116.108784 
L 311.406066 112.922004 
L 320.759774 110.029065 
L 330.200145 107.43285 
L 339.717771 105.135949 
L 349.303162 103.140649 
L 358.946765 101.448942 
L 368.638966 100.062512 
L 378.370103 98.982741 
L 388.130478 98.210707 
L 397.91036 97.747178 
L 407.7 97.592617 
L 407.7 97.592617 
" style="fill:none;stroke:#cccccc;stroke-linecap:round;stroke-width:0.7;"/>
   </g>
   <g id="line2d_4">
    <path clip-path="url(#p29ba91e2ff)" d="M 407.7 79.351007 
L 418.065502 79.514659 
L 428.420671 80.005454 
L 438.755185 80.822902 
L 449.058742 81.966189 
L 459.321073 83.434173 
L 469.531946 85.225394 
L 479.681184 87.338063 
L 489.75867 89.770077 
L 499.754357 92.51901 
L 509.658283 95.582122 
L 519.460575 98.95636 
L 529.151461 102.63836 
L 538.721282 106.624453 
L 548.160498 110.910664 
L 557.4597 115.492721 
L 566.609618 120.366057 
L 575.601132 125.525814 
L 584.425278 130.966848 
L 593.07326 136.683735 
L 601.536458 142.670778 
L 609.806436 148.922007 
L 617.87495 155.431192 
L 625.733957 162.191844 
L 633.375623 169.197223 
L 640.792331 176.440348 
L 647.976687 183.913997 
L 654.92153 191.610721 
L 661.619937 199.522847 
L 668.065232 207.642489 
L 674.250988 215.961553 
L 680.171041 224.471746 
L 685.819489 233.164584 
L 691.190701 242.031404 
L 696.279323 251.063365 
L 701.080284 260.251465 
L 705.588796 269.586545 
L 709.800367 279.0593 
L 713.710797 288.660286 
L 717.316189 298.379934 
L 720.612949 308.208554 
L 723.59779 318.13635 
L 726.267738 328.153424 
L 728.62013 338.249793 
L 730.652623 348.415391 
L 732.363189 358.640085 
L 733.750123 368.913683 
L 734.812044 379.225944 
L 735.547893 389.566588 
L 735.956935 399.925309 
L 736.038764 410.291779 
L 735.793298 420.655666 
L 735.220781 431.006638 
L 734.321784 441.334378 
L 733.097204 451.62859 
L 731.548261 461.879014 
L 729.676498 472.07543 
L 727.483783 482.207676 
L 724.9723 492.265651 
L 722.144553 502.239329 
L 719.003361 512.118768 
L 715.551855 521.89412 
L 711.793475 531.555641 
L 707.731969 541.0937 
L 703.371384 550.498789 
L 698.716067 559.761534 
L 693.77066 568.8727 
L 688.54009 577.823205 
L 683.029574 586.604128 
L 677.244603 595.206716 
L 671.190944 603.622393 
L 664.874631 611.84277 
L 658.301961 619.859653 
L 651.479486 627.665051 
L 644.414006 635.251183 
L 637.112564 642.610487 
L 629.582439 649.735627 
L 621.831137 656.6195 
L 613.866384 663.255246 
L 605.69612 669.636248 
L 597.328489 675.756146 
L 588.771832 681.608841 
L 580.034679 687.188497 
L 571.125739 692.489552 
L 562.053893 697.506724 
L 552.828183 702.235009 
L 543.457807 706.669696 
L 533.952104 710.806364 
L 524.32055 714.640888 
L 514.572746 718.169447 
L 504.71841 721.388523 
L 494.767363 724.294908 
L 484.729526 726.885704 
L 474.614903 729.158329 
L 464.433579 731.110517 
L 454.195701 732.740322 
L 443.911476 734.046121 
L 433.591154 735.02661 
L 423.245023 735.680813 
L 412.883397 736.008078 
L 402.516603 736.008078 
L 392.154977 735.680813 
L 381.808846 735.02661 
L 371.488524 734.046121 
L 361.204299 732.740322 
L 350.966421 731.110517 
L 340.785097 729.158329 
L 330.670474 726.885704 
L 320.632637 724.294908 
L 310.68159 721.388523 
L 300.827254 718.169447 
L 291.07945 714.640888 
L 281.447896 710.806364 
L 271.942193 706.669696 
L 262.571817 702.235009 
L 253.346107 697.506724 
L 244.274261 692.489552 
L 235.365321 687.188497 
L 226.628168 681.608841 
L 218.071511 675.756146 
L 209.70388 669.636248 
L 201.533616 663.255246 
L 193.568863 656.6195 
L 185.817561 649.735627 
L 178.287436 642.610487 
L 170.985994 635.251183 
L 163.920514 627.665051 
L 157.098039 619.859653 
L 150.525369 611.84277 
L 144.209056 603.622393 
L 138.155397 595.206716 
L 132.370426 586.604128 
L 126.85991 577.823205 
L 121.62934 568.8727 
L 116.683933 559.761534 
L 112.028616 550.498789 
L 107.668031 541.0937 
L 103.606525 531.555641 
L 99.848145 521.89412 
L 96.396639 512.118768 
L 93.255447 502.239329 
L 90.4277 492.265651 
L 87.916217 482.207676 
L 85.723502 472.07543 
L 83.851739 461.879014 
L 82.302796 451.62859 
L 81.078216 441.334378 
L 80.179219 431.006638 
L 79.606702 420.655666 
L 79.361236 410.291779 
L 79.443065 399.925309 
L 79.852107 389.566588 
L 80.587956 379.225944 
L 81.649877 368.913683 
L 83.036811 358.640085 
L 84.747377 348.415391 
L 86.77987 338.249793 
L 89.132262 328.153424 
L 91.80221 318.13635 
L 94.787051 308.208554 
L 98.083811 298.379934 
L 101.689203 288.660286 
L 105.599633 279.0593 
L 109.811204 269.586545 
L 114.319716 260.251465 
L 119.120677 251.063365 
L 124.209299 242.031404 
L 129.580511 233.164584 
L 135.228959 224.471746 
L 141.149012 215.961553 
L 147.334768 207.642489 
L 153.780063 199.522847 
L 160.47847 191.610721 
L 167.423313 183.913997 
L 174.607669 176.440348 
L 182.024377 169.197223 
L 189.666043 162.191844 
L 197.52505 155.431192 
L 205.593564 148.922007 
L 213.863542 142.670778 
L 222.32674 136.683735 
L 230.974722 130.966848 
L 239.798868 125.525814 
L 248.790382 120.366057 
L 257.9403 115.492721 
L 267.239502 110.910664 
L 276.678718 106.624453 
L 286.248539 102.63836 
L 295.939425 98.95636 
L 305.741717 95.582122 
L 315.645643 92.51901 
L 325.64133 89.770077 
L 335.718816 87.338063 
L 345.868054 85.225394 
L 356.078927 83.434173 
L 366.341258 81.966189 
L 376.644815 80.822902 
L 386.979329 80.005454 
L 397.334498 79.514659 
L 407.7 79.351007 
L 407.7 79.351007 
" style="fill:none;stroke:#c1c1c1;stroke-linecap:round;stroke-width:0.7;"/>
   </g>
   <g id="line2d_5">
    <path clip-path="url(#p29ba91e2ff)" d="M 407.7 61.109396 
L 418.641363 61.28214 
L 429.571819 61.800202 
L 440.480473 62.663064 
L 451.35645 63.869866 
L 462.18891 65.419405 
L 472.967054 67.310138 
L 483.680139 69.540178 
L 494.317485 72.107303 
L 504.868488 75.008955 
L 515.322632 78.24224 
L 525.669496 81.803935 
L 535.898764 85.690491 
L 546.000242 89.898034 
L 555.963859 94.422368 
L 565.779683 99.258984 
L 575.43793 104.40306 
L 584.928972 109.84947 
L 594.243349 115.592784 
L 603.371775 121.627276 
L 612.305151 127.946932 
L 621.034572 134.545452 
L 629.551337 141.416258 
L 637.846955 148.552502 
L 645.913158 155.947069 
L 653.741905 163.592589 
L 661.325392 171.481441 
L 668.656059 179.605761 
L 675.7266 187.95745 
L 682.529967 196.528183 
L 689.059376 205.309417 
L 695.308321 214.292398 
L 701.270571 223.468172 
L 706.940184 232.827593 
L 712.311508 242.36133 
L 717.379188 252.05988 
L 722.138174 261.913575 
L 726.58372 271.912594 
L 730.711397 282.046968 
L 734.517088 292.306597 
L 737.997002 302.681252 
L 741.147668 313.160591 
L 743.965946 323.73417 
L 746.449027 334.391448 
L 748.594435 345.121801 
L 750.400033 355.914534 
L 751.864019 366.758887 
L 752.984936 377.644052 
L 753.761665 388.559177 
L 754.193432 399.493381 
L 754.279807 410.435767 
L 754.020703 421.375425 
L 753.41638 432.301452 
L 752.467439 443.202955 
L 751.174826 454.069068 
L 749.539831 464.888959 
L 747.564081 475.651843 
L 745.249548 486.346991 
L 742.598538 496.963742 
L 739.613695 507.491514 
L 736.297992 517.91981 
L 732.654735 528.238238 
L 728.687557 538.43651 
L 724.400411 548.504461 
L 719.797572 558.432055 
L 714.883627 568.209397 
L 709.663474 577.826738 
L 704.142318 587.274494 
L 698.325661 596.543247 
L 692.219303 605.623756 
L 685.829329 614.50697 
L 679.162111 623.184035 
L 672.224292 631.6463 
L 665.022791 639.885331 
L 657.564784 647.892915 
L 649.857707 655.661069 
L 641.909241 663.18205 
L 633.727311 670.448361 
L 625.320072 677.452759 
L 616.695904 684.188262 
L 607.863405 690.648154 
L 598.831379 696.825998 
L 589.608828 702.715635 
L 580.204947 708.311194 
L 570.629109 713.607097 
L 560.89086 718.598066 
L 550.999907 723.279124 
L 540.96611 727.645606 
L 530.79947 731.693159 
L 520.510121 735.41775 
L 510.108321 738.815663 
L 499.604439 741.883514 
L 489.008944 744.618243 
L 478.332398 747.017125 
L 467.585445 749.077768 
L 456.778796 750.798118 
L 445.923225 752.176461 
L 435.029551 753.211422 
L 424.108635 753.901969 
L 413.171363 754.247415 
L 402.228637 754.247415 
L 391.291365 753.901969 
L 380.370449 753.211422 
L 369.476775 752.176461 
L 358.621204 750.798118 
L 347.814555 749.077768 
L 337.067602 747.017125 
L 326.391056 744.618243 
L 315.795561 741.883514 
L 305.291679 738.815663 
L 294.889879 735.41775 
L 284.60053 731.693159 
L 274.43389 727.645606 
L 264.400093 723.279124 
L 254.50914 718.598066 
L 244.770891 713.607097 
L 235.195053 708.311194 
L 225.791172 702.715635 
L 216.568621 696.825998 
L 207.536595 690.648154 
L 198.704096 684.188262 
L 190.079928 677.452759 
L 181.672689 670.448361 
L 173.490759 663.18205 
L 165.542293 655.661069 
L 157.835216 647.892915 
L 150.377209 639.885331 
L 143.175708 631.6463 
L 136.237889 623.184035 
L 129.570671 614.50697 
L 123.180697 605.623756 
L 117.074339 596.543247 
L 111.257682 587.274494 
L 105.736526 577.826738 
L 100.516373 568.209397 
L 95.602428 558.432055 
L 90.999589 548.504461 
L 86.712443 538.43651 
L 82.745265 528.238238 
L 79.102008 517.91981 
L 75.786305 507.491514 
L 72.801462 496.963742 
L 70.150452 486.346991 
L 67.835919 475.651843 
L 65.860169 464.888959 
L 64.225174 454.069068 
L 62.932561 443.202955 
L 61.98362 432.301452 
L 61.379297 421.375425 
L 61.120193 410.435767 
L 61.206568 399.493381 
L 61.638335 388.559177 
L 62.415064 377.644052 
L 63.535981 366.758887 
L 64.999967 355.914534 
L 66.805565 345.121801 
L 68.950973 334.391448 
L 71.434054 323.73417 
L 74.252332 313.160591 
L 77.402998 302.681252 
L 80.882912 292.306597 
L 84.688603 282.046968 
L 88.81628 271.912594 
L 93.261826 261.913575 
L 98.020812 252.05988 
L 103.088492 242.36133 
L 108.459816 232.827593 
L 114.129429 223.468172 
L 120.091679 214.292398 
L 126.340624 205.309417 
L 132.870033 196.528183 
L 139.6734 187.95745 
L 146.743941 179.605761 
L 154.074608 171.481441 
L 161.658095 163.592589 
L 169.486842 155.947069 
L 177.553045 148.552502 
L 185.848663 141.416258 
L 194.365428 134.545452 
L 203.094849 127.946932 
L 212.028225 121.627276 
L 221.156651 115.592784 
L 230.471028 109.84947 
L 239.96207 104.40306 
L 249.620317 99.258984 
L 259.436141 94.422368 
L 269.399758 89.898034 
L 279.501236 85.690491 
L 289.730504 81.803935 
L 300.077368 78.24224 
L 310.531512 75.008955 
L 321.082515 72.107303 
L 331.719861 69.540178 
L 342.432946 67.310138 
L 353.21109 65.419405 
L 364.04355 63.869866 
L 374.919527 62.663064 
L 385.828181 61.800202 
L 396.758637 61.28214 
L 407.7 61.109396 
L 407.7 61.109396 
" style="fill:none;stroke:#b7b7b7;stroke-linecap:round;stroke-width:0.7;"/>
   </g>
   <g id="line2d_6">
    <path clip-path="url(#p29ba91e2ff)" d="M 407.7 42.867785 
L 419.217224 43.049622 
L 430.722967 43.594949 
L 442.205761 44.503225 
L 453.654158 45.773543 
L 465.056747 47.404637 
L 476.402162 49.394882 
L 487.679093 51.742292 
L 498.8763 54.44453 
L 509.982619 57.4989 
L 520.986981 60.902358 
L 531.878416 64.651511 
L 542.646068 68.742623 
L 553.279202 73.171614 
L 563.76722 77.934071 
L 574.099666 83.025246 
L 584.266242 88.440063 
L 594.256813 94.173126 
L 604.06142 100.21872 
L 613.670289 106.570817 
L 623.073843 113.223086 
L 632.262707 120.168897 
L 641.227723 127.401324 
L 649.959953 134.91316 
L 658.450693 142.696915 
L 666.691479 150.744831 
L 674.674097 159.048886 
L 682.390589 167.600801 
L 689.833264 176.392053 
L 696.994702 185.413877 
L 703.867765 194.657281 
L 710.445601 204.113051 
L 716.721654 213.77176 
L 722.689668 223.623782 
L 728.343693 233.659294 
L 733.678093 243.868294 
L 738.687551 254.240606 
L 743.367074 264.765888 
L 747.711997 275.433651 
L 751.717988 286.23326 
L 755.381054 297.153949 
L 758.697545 308.184833 
L 761.664153 319.314916 
L 764.277923 330.533103 
L 766.536247 341.828212 
L 768.436876 353.188983 
L 769.977915 364.604092 
L 771.157827 376.06216 
L 771.975436 387.551765 
L 772.429928 399.061454 
L 772.520849 410.579755 
L 772.248109 422.095184 
L 771.611979 433.596265 
L 770.613094 445.071531 
L 769.252449 456.509545 
L 767.531401 467.898904 
L 765.451665 479.228256 
L 763.015314 490.486307 
L 760.224777 501.661834 
L 757.082836 512.743699 
L 753.592623 523.720853 
L 749.757616 534.582356 
L 745.581639 545.317379 
L 741.068854 555.915222 
L 736.22376 566.365321 
L 731.051186 576.65726 
L 725.556288 586.780777 
L 719.744545 596.725784 
L 713.621749 606.482365 
L 707.194003 616.040796 
L 700.467715 625.391548 
L 693.44959 634.5253 
L 686.146624 643.432948 
L 678.566096 652.105612 
L 670.715562 660.534647 
L 662.602849 668.711652 
L 654.236044 676.628474 
L 645.623485 684.277223 
L 636.77376 691.650273 
L 627.695689 698.740275 
L 618.398321 705.540163 
L 608.890925 712.043156 
L 599.182977 718.242774 
L 589.284155 724.132836 
L 579.204326 729.707471 
L 568.953537 734.961122 
L 558.542007 739.888551 
L 547.980115 744.484848 
L 537.278389 748.745431 
L 526.447496 752.666052 
L 515.498233 756.242804 
L 504.441514 759.47212 
L 493.288362 762.350782 
L 482.049893 764.875921 
L 470.73731 767.045019 
L 459.36189 768.855914 
L 447.934973 770.306801 
L 436.467949 771.396233 
L 424.972248 772.123125 
L 413.45933 772.486753 
L 401.94067 772.486753 
L 390.427752 772.123125 
L 378.932051 771.396233 
L 367.465027 770.306801 
L 356.03811 768.855914 
L 344.66269 767.045019 
L 333.350107 764.875921 
L 322.111638 762.350782 
L 310.958486 759.47212 
L 299.901767 756.242804 
L 288.952504 752.666052 
L 278.121611 748.745431 
L 267.419885 744.484848 
L 256.857993 739.888551 
L 246.446463 734.961122 
L 236.195674 729.707471 
L 226.115845 724.132836 
L 216.217023 718.242774 
L 206.509075 712.043156 
L 197.001679 705.540163 
L 187.704311 698.740275 
L 178.62624 691.650273 
L 169.776515 684.277223 
L 161.163956 676.628474 
L 152.797151 668.711652 
L 144.684438 660.534647 
L 136.833904 652.105612 
L 129.253376 643.432948 
L 121.95041 634.5253 
L 114.932285 625.391548 
L 108.205997 616.040796 
L 101.778251 606.482365 
L 95.655455 596.725784 
L 89.843712 586.780777 
L 84.348814 576.65726 
L 79.17624 566.365321 
L 74.331146 555.915222 
L 69.818361 545.317379 
L 65.642384 534.582356 
L 61.807377 523.720853 
L 58.317164 512.743699 
L 55.175223 501.661834 
L 52.384686 490.486307 
L 49.948335 479.228256 
L 47.868599 467.898904 
L 46.147551 456.509545 
L 44.786906 445.071531 
L 43.788021 433.596265 
L 43.151891 422.095184 
L 42.879151 410.579755 
L 42.970072 399.061454 
L 43.424564 387.551765 
L 44.242173 376.06216 
L 45.422085 364.604092 
L 46.963124 353.188983 
L 48.863753 341.828212 
L 51.122077 330.533103 
L 53.735847 319.314916 
L 56.702455 308.184833 
L 60.018946 297.153949 
L 63.682012 286.23326 
L 67.688003 275.433651 
L 72.032926 264.765888 
L 76.712449 254.240606 
L 81.721907 243.868294 
L 87.056307 233.659294 
L 92.710332 223.623782 
L 98.678346 213.77176 
L 104.954399 204.113051 
L 111.532235 194.657281 
L 118.405298 185.413877 
L 125.566736 176.392053 
L 133.009411 167.600801 
L 140.725903 159.048886 
L 148.708521 150.744831 
L 156.949307 142.696915 
L 165.440047 134.91316 
L 174.172277 127.401324 
L 183.137293 120.168897 
L 192.326157 113.223086 
L 201.729711 106.570817 
L 211.33858 100.21872 
L 221.143187 94.173126 
L 231.133758 88.440063 
L 241.300334 83.025246 
L 251.63278 77.934071 
L 262.120798 73.171614 
L 272.753932 68.742623 
L 283.521584 64.651511 
L 294.413019 60.902358 
L 305.417381 57.4989 
L 316.5237 54.44453 
L 327.720907 51.742292 
L 338.997838 49.394882 
L 350.343253 47.404637 
L 361.745842 45.773543 
L 373.194239 44.503225 
L 384.677033 43.594949 
L 396.182776 43.049622 
L 407.7 42.867785 
L 407.7 42.867785 
" style="fill:none;stroke:#adadad;stroke-linecap:round;stroke-width:0.7;"/>
   </g>
   <g id="line2d_7">
    <path clip-path="url(#p29ba91e2ff)" d="M 407.7 24.626174 
L 419.793085 24.817103 
L 431.874116 25.389697 
L 443.931049 26.343386 
L 455.951866 27.67722 
L 467.924585 29.389869 
L 479.83727 31.479626 
L 491.678048 33.944407 
L 503.435115 36.781756 
L 515.09675 39.988845 
L 526.65133 43.562475 
L 538.087337 47.499087 
L 549.393371 51.794754 
L 560.558162 56.445195 
L 571.570581 61.445775 
L 582.41965 66.791508 
L 593.094554 72.477067 
L 603.584653 78.496783 
L 613.879491 84.844656 
L 623.968803 91.514358 
L 633.842535 98.49924 
L 643.490843 105.792341 
L 652.904109 113.38639 
L 662.07295 121.273818 
L 670.988227 129.446761 
L 679.641053 137.897073 
L 688.022801 146.61633 
L 696.125118 155.595841 
L 703.939927 164.826655 
L 711.459437 174.299571 
L 718.676153 184.005145 
L 725.582881 193.933703 
L 732.172737 204.075348 
L 738.439151 214.419971 
L 744.375877 224.957259 
L 749.976998 235.676709 
L 755.236929 246.567636 
L 760.150428 257.619183 
L 764.712596 268.820334 
L 768.918887 280.159923 
L 772.765107 291.626646 
L 776.247422 303.209075 
L 779.362361 314.895662 
L 782.106819 326.674758 
L 784.47806 338.534622 
L 786.47372 350.463432 
L 788.091811 362.449296 
L 789.330718 374.480268 
L 790.189208 386.544353 
L 790.666425 398.629527 
L 790.761892 410.723742 
L 790.475514 422.814944 
L 789.807578 434.891078 
L 788.758748 446.940108 
L 787.330071 458.950022 
L 785.522971 470.908849 
L 783.339248 482.804669 
L 780.78108 494.625622 
L 777.851016 506.359926 
L 774.551978 517.995883 
L 770.887254 529.521896 
L 766.860497 540.926473 
L 762.475721 552.198248 
L 757.737297 563.325983 
L 752.649948 574.298587 
L 747.218745 585.105122 
L 741.449103 595.734816 
L 735.346772 606.177073 
L 728.917836 616.421483 
L 722.168703 626.457835 
L 715.106101 636.276125 
L 707.73707 645.866565 
L 700.068955 655.219595 
L 692.1094 664.325893 
L 683.86634 673.17638 
L 675.347992 681.762234 
L 666.562846 690.074898 
L 657.51966 698.106084 
L 648.227448 705.847786 
L 638.695473 713.292289 
L 628.933237 720.432171 
L 618.950471 727.260314 
L 608.757126 733.769913 
L 598.363362 739.954478 
L 587.779542 745.807844 
L 577.016214 751.324178 
L 566.084108 756.497979 
L 554.994121 761.324091 
L 543.757308 765.797703 
L 532.384871 769.914355 
L 520.888145 773.669944 
L 509.27859 777.060726 
L 497.56778 780.083321 
L 485.767387 782.734717 
L 473.889176 785.01227 
L 461.944985 786.913709 
L 449.946722 788.437141 
L 437.906346 789.581045 
L 425.83586 790.344282 
L 413.747296 790.72609 
L 401.652704 790.72609 
L 389.56414 790.344282 
L 377.493654 789.581045 
L 365.453278 788.437141 
L 353.455015 786.913709 
L 341.510824 785.01227 
L 329.632613 782.734717 
L 317.83222 780.083321 
L 306.12141 777.060726 
L 294.511855 773.669944 
L 283.015129 769.914355 
L 271.642692 765.797703 
L 260.405879 761.324091 
L 249.315892 756.497979 
L 238.383786 751.324178 
L 227.620458 745.807844 
L 217.036638 739.954478 
L 206.642874 733.769913 
L 196.449529 727.260314 
L 186.466763 720.432171 
L 176.704527 713.292289 
L 167.172552 705.847786 
L 157.88034 698.106084 
L 148.837154 690.074898 
L 140.052008 681.762234 
L 131.53366 673.17638 
L 123.2906 664.325893 
L 115.331045 655.219595 
L 107.66293 645.866565 
L 100.293899 636.276125 
L 93.231297 626.457835 
L 86.482164 616.421483 
L 80.053228 606.177073 
L 73.950897 595.734816 
L 68.181255 585.105122 
L 62.750052 574.298587 
L 57.662703 563.325983 
L 52.924279 552.198248 
L 48.539503 540.926473 
L 44.512746 529.521896 
L 40.848022 517.995883 
L 37.548984 506.359926 
L 34.61892 494.625622 
L 32.060752 482.804669 
L 29.877029 470.908849 
L 28.069929 458.950022 
L 26.641252 446.940108 
L 25.592422 434.891078 
L 24.924486 422.814944 
L 24.638108 410.723742 
L 24.733575 398.629527 
L 25.210792 386.544353 
L 26.069282 374.480268 
L 27.308189 362.449296 
L 28.92628 350.463432 
L 30.92194 338.534622 
L 33.293181 326.674758 
L 36.037639 314.895662 
L 39.152578 303.209075 
L 42.634893 291.626646 
L 46.481113 280.159923 
L 50.687404 268.820334 
L 55.249572 257.619183 
L 60.163071 246.567636 
L 65.423002 235.676709 
L 71.024123 224.957259 
L 76.960849 214.419971 
L 83.227263 204.075348 
L 89.817119 193.933703 
L 96.723847 184.005145 
L 103.940563 174.299571 
L 111.460073 164.826655 
L 119.274882 155.595841 
L 127.377199 146.61633 
L 135.758947 137.897073 
L 144.411773 129.446761 
L 153.32705 121.273818 
L 162.495891 113.38639 
L 171.909157 105.792341 
L 181.557465 98.49924 
L 191.431197 91.514358 
L 201.520509 84.844656 
L 211.815347 78.496783 
L 222.305446 72.477067 
L 232.98035 66.791508 
L 243.829419 61.445775 
L 254.841838 56.445195 
L 266.006629 51.794754 
L 277.312663 47.499087 
L 288.74867 43.562475 
L 300.30325 39.988845 
L 311.964885 36.781756 
L 323.721952 33.944407 
L 335.56273 31.479626 
L 347.475415 29.389869 
L 359.448134 27.67722 
L 371.468951 26.343386 
L 383.525884 25.389697 
L 395.606915 24.817103 
L 407.7 24.626174 
L 407.7 24.626174 
" style="fill:none;stroke:#a3a3a3;stroke-linecap:round;stroke-width:0.7;"/>
   </g>
   <g id="line2d_8">
    <path clip-path="url(#p29ba91e2ff)" d="M 407.7 6.384564 
L 420.368946 6.584584 
L 433.025264 7.184444 
L 445.656337 8.183547 
L 458.249574 9.580897 
L 470.792422 11.375101 
L 483.272379 13.56437 
L 495.677003 16.146522 
L 507.99393 19.118983 
L 520.210881 22.47879 
L 532.315679 26.222593 
L 544.296258 30.346662 
L 556.140675 34.846885 
L 567.837122 39.718776 
L 579.373942 44.957478 
L 590.739633 50.55777 
L 601.922866 56.51407 
L 612.912494 62.820439 
L 623.697562 69.470591 
L 634.267318 76.457898 
L 644.611227 83.775395 
L 654.718978 91.415786 
L 664.580495 99.371457 
L 674.185948 107.634476 
L 683.525762 116.196606 
L 692.590627 125.049314 
L 701.371506 134.183774 
L 709.859648 143.590881 
L 718.04659 153.261258 
L 725.924172 163.185265 
L 733.484541 173.353009 
L 740.720161 183.754356 
L 747.62382 194.378936 
L 754.188635 205.21616 
L 760.408062 216.255224 
L 766.275902 227.485124 
L 771.786307 238.894666 
L 776.933782 250.472477 
L 781.713196 262.207016 
L 786.119787 274.086586 
L 790.14916 286.099344 
L 793.797299 298.233316 
L 797.060569 310.476407 
L 799.935715 322.816413 
L 802.419872 335.241033 
L 804.510564 347.737881 
L 806.205706 360.294501 
L 807.50361 372.898376 
L 808.40298 385.536941 
L 808.902921 398.1976 
L 809.002934 410.86773 
L 808.70292 423.534703 
L 808.003177 436.185891 
L 806.904403 448.808684 
L 805.407694 461.390499 
L 803.514541 473.918795 
L 801.226831 486.381081 
L 798.546845 498.764937 
L 795.477255 511.058018 
L 792.02112 523.248068 
L 788.181885 535.322938 
L 783.963378 547.270591 
L 779.369803 559.079117 
L 774.405739 570.736744 
L 769.076136 582.231853 
L 763.386304 593.552985 
L 757.341917 604.688855 
L 750.948999 615.628362 
L 744.213924 626.360601 
L 737.143403 636.874875 
L 729.744487 647.160702 
L 722.024549 657.20783 
L 713.991286 667.006243 
L 705.652705 676.546173 
L 697.017118 685.818112 
L 688.093134 694.812817 
L 678.889648 703.521321 
L 669.415834 711.934945 
L 659.681136 720.0453 
L 649.695258 727.844303 
L 639.468153 735.324179 
L 629.010017 742.477472 
L 618.331275 749.297051 
L 607.44257 755.77612 
L 596.354758 761.908218 
L 585.078891 767.687234 
L 573.626208 773.107407 
L 562.008127 778.163333 
L 550.236228 782.849974 
L 538.322246 787.162657 
L 526.278056 791.097084 
L 514.115666 794.649332 
L 501.847198 797.81586 
L 489.484882 800.593513 
L 477.041041 802.979521 
L 464.528079 804.971505 
L 451.95847 806.567481 
L 439.344744 807.765857 
L 426.699473 808.565438 
L 414.035263 808.965428 
L 401.364737 808.965428 
L 388.700527 808.565438 
L 376.055256 807.765857 
L 363.44153 806.567481 
L 350.871921 804.971505 
L 338.358959 802.979521 
L 325.915118 800.593513 
L 313.552802 797.81586 
L 301.284334 794.649332 
L 289.121944 791.097084 
L 277.077754 787.162657 
L 265.163772 782.849974 
L 253.391873 778.163333 
L 241.773792 773.107407 
L 230.321109 767.687234 
L 219.045242 761.908218 
L 207.95743 755.77612 
L 197.068725 749.297051 
L 186.389983 742.477472 
L 175.931847 735.324179 
L 165.704742 727.844303 
L 155.718864 720.0453 
L 145.984166 711.934945 
L 136.510352 703.521321 
L 127.306866 694.812817 
L 118.382882 685.818112 
L 109.747295 676.546173 
L 101.408714 667.006243 
L 93.375451 657.20783 
L 85.655513 647.160702 
L 78.256597 636.874875 
L 71.186076 626.360601 
L 64.451001 615.628362 
L 58.058083 604.688855 
L 52.013696 593.552985 
L 46.323864 582.231853 
L 40.994261 570.736744 
L 36.030197 559.079117 
L 31.436622 547.270591 
L 27.218115 535.322938 
L 23.37888 523.248068 
L 19.922745 511.058018 
L 16.853155 498.764937 
L 14.173169 486.381081 
L 11.885459 473.918795 
L 9.992306 461.390499 
L 8.495597 448.808684 
L 7.396823 436.185891 
L 6.69708 423.534703 
L 6.397066 410.86773 
L 6.497079 398.1976 
L 6.99702 385.536941 
L 7.89639 372.898376 
L 9.194294 360.294501 
L 10.889436 347.737881 
L 12.980128 335.241033 
L 15.464285 322.816413 
L 18.339431 310.476407 
L 21.602701 298.233316 
L 25.25084 286.099344 
L 29.280213 274.086586 
L 33.686804 262.207016 
L 38.466218 250.472477 
L 43.613693 238.894666 
L 49.124098 227.485124 
L 54.991938 216.255224 
L 61.211365 205.21616 
L 67.77618 194.378936 
L 74.679839 183.754356 
L 81.915459 173.353009 
L 89.475828 163.185265 
L 97.35341 153.261258 
L 105.540352 143.590881 
L 114.028494 134.183774 
L 122.809373 125.049314 
L 131.874238 116.196606 
L 141.214052 107.634476 
L 150.819505 99.371457 
L 160.681022 91.415786 
L 170.788773 83.775395 
L 181.132682 76.457898 
L 191.702438 69.470591 
L 202.487506 62.820439 
L 213.477134 56.51407 
L 224.660367 50.55777 
L 236.026058 44.957478 
L 247.562878 39.718776 
L 259.259325 34.846885 
L 271.103742 30.346662 
L 283.084321 26.222593 
L 295.189119 22.47879 
L 307.40607 19.118983 
L 319.722997 16.146522 
L 332.127621 13.56437 
L 344.607578 11.375101 
L 357.150426 9.580897 
L 369.743663 8.183547 
L 382.374736 7.184444 
L 395.031054 6.584584 
L 407.7 6.384564 
L 407.7 6.384564 
" style="fill:none;stroke:#999999;stroke-linecap:round;stroke-width:0.7;"/>
   </g>
   <g id="patch_3">
    <path d="M 407.7 0 
C 354.161327 0 301.143249 10.545951 251.679965 31.034315 
C 202.21668 51.522678 157.270124 81.555006 119.412565 119.412565 
C 81.555006 157.270124 51.522678 202.21668 31.034315 251.679965 
C 10.545951 301.143249 0 354.161327 0 407.7 
C 0 461.238673 10.545951 514.256751 31.034315 563.720035 
C 51.522678 613.18332 81.555006 658.129876 119.412565 695.987435 
C 157.270124 733.844994 202.21668 763.877322 251.679965 784.365685 
C 301.143249 804.854049 354.161327 815.4 407.7 815.4 
C 461.238673 815.4 514.256751 804.854049 563.720035 784.365685 
C 613.18332 763.877322 658.129876 733.844994 695.987435 695.987435 
C 733.844994 658.129876 763.877322 613.18332 784.365685 563.720035 
C 804.854049 514.256751 815.4 461.238673 815.4 407.7 
C 815.4 354.161327 804.854049 301.143249 784.365685 251.679965 
C 763.877322 202.21668 733.844994 157.270124 695.987435 119.412565 
C 658.129876 81.555006 613.18332 51.522678 563.720035 31.034315 
C 514.256751 10.545951 461.238673 0 407.7 0 
" style="fill:none;"/>
   </g>
  </g>
 </g>
 <defs>
  <clipPath id="p29ba91e2ff">
   <path d="M 815.4 407.7 
C 815.4 354.161327 804.854049 301.143249 784.365685 251.679965 
C 763.877322 202.21668 733.844994 157.270124 695.987435 119.412565 
C 658.129876 81.555006 613.18332 51.522678 563.720035 31.034315 
C 514.256751 10.545951 461.238673 0 407.7 0 
C 354.161327 0 301.143249 10.545951 251.679965 31.034315 
C 202.21668 51.522678 157.270124 81.555006 119.412565 119.412565 
C 81.555006 157.270124 51.522678 202.21668 31.034315 251.679965 
C 10.545951 301.143249 0 354.161327 0 407.7 
C 0 461.238673 10.545951 514.256751 31.034315 563.720035 
C 51.522678 613.18332 81.555006 658.129876 119.412565 695.987435 
C 157.270124 733.844994 202.21668 763.877322 251.679965 784.365685 
C 301.143249 804.854049 354.161327 815.4 407.7 815.4 
C 461.238673 815.4 514.256751 804.854049 563.720035 784.365685 
C 613.18332 763.877322 658.129876 733.844994 695.987435 695.987435 
C 733.844994 658.129876 763.877322 613.18332 784.365685 563.720035 
C 804.854049 514.256751 815.4 461.238673 815.4 407.7 
M 407.7 407.7 
C 407.7 407.7 407.7 407.7 407.7 407.7 
C 407.7 407.7 407.7 407.7 407.7 407.7 
C 407.7 407.7 407.7 407.7 407.7 407.7 
C 407.7 407.7 407.7 407.7 407.7 407.7 
C 407.7 407.7 407.7 407.7 407.7 407.7 
C 407.7 407.7 407.7 407.7 407.7 407.7 
C 407.7 407.7 407.7 407.7 407.7 407.7 
C 407.7 407.7 407.7 407.7 407.7 407.7 
C 407.7 407.7 407.7 407.7 407.7 407.7 
C 407.7 407.7 407.7 407.7 407.7 407.7 
C 407.7 407.7 407.7 407.7 407.7 407.7 
C 407.7 407.7 407.7 407.7 407.7 407.7 
C 407.7 407.7 407.7 407.7 407.7 407.7 
C 407.7 407.7 407.7 407.7 407.7 407.7 
C 407.7 407.7 407.7 407.7 407.7 407.7 
C 407.7 407.7 407.7 407.7 407.7 407.7 
M 815.4 407.7 
z
"/>
  </clipPath>
 </defs>
</svg>
